<svg width="32" height="32" viewBox="0 0 32 32" fill="none" xmlns="http://www.w3.org/2000/svg">
<path d="M31.3912 11.5637L29.3958 11.0978C28.1629 10.8108 27.1981 9.84603 26.9111 8.61306L26.4452 6.61771C26.3605 6.26006 25.8475 6.26006 25.7675 6.61771L25.3016 8.61306C25.0146 9.84603 24.0498 10.8108 22.8169 11.0978L20.8215 11.5637C20.4639 11.6484 20.4639 12.1614 20.8215 12.2414L22.8169 12.7073C24.0498 12.9943 25.0146 13.9591 25.3016 15.192L25.7675 17.1874C25.8522 17.545 26.3652 17.545 26.4452 17.1874L26.9111 15.192C27.1981 13.9591 28.1629 12.9943 29.3958 12.7073L31.3912 12.2414C31.7488 12.1614 31.7488 11.6484 31.3912 11.5637ZM20.2615 6.09064L20.5768 6.16594C21.1792 6.30712 21.6404 6.76831 21.7815 7.37067L21.8568 7.68598C21.8804 7.79421 21.9745 7.86951 22.0874 7.86951C22.2004 7.86951 22.2898 7.79421 22.318 7.68598L22.3933 7.37067C22.5345 6.76831 22.9957 6.30712 23.5981 6.16594L23.9134 6.09064C24.0216 6.06711 24.0969 5.97299 24.0969 5.86005C24.0969 5.7471 24.0216 5.65769 23.9134 5.62945L23.5981 5.55416C22.9957 5.41298 22.5345 4.95179 22.3933 4.34942L22.318 4.03412C22.2945 3.92588 22.2004 3.85059 22.0874 3.85059C21.9745 3.85059 21.8851 3.92588 21.8568 4.03412L21.7815 4.34942C21.6404 4.95179 21.1792 5.41298 20.5768 5.55416L20.2615 5.62945C20.1533 5.65298 20.078 5.7471 20.078 5.86005C20.078 5.97299 20.1533 6.06711 20.2615 6.09064ZM15.6449 14.9662C13.7013 14.9662 12.1201 16.5474 12.1201 18.491C12.1201 20.4345 13.7013 22.0157 15.6449 22.0157C17.5885 22.0157 19.1697 20.4345 19.1697 18.491C19.1697 16.5474 17.5885 14.9662 15.6449 14.9662Z" fill="white"/>
<path d="M26.1021 18.4015C25.5044 18.4015 24.9821 17.9874 24.8456 17.4038L24.3797 15.4085C24.2762 14.9755 24.055 14.5755 23.7397 14.2602C23.4244 13.9449 23.0291 13.7237 22.5914 13.6202L20.5961 13.1543C20.0078 13.0178 19.5984 12.5002 19.5984 11.8978C19.5984 11.5448 19.8525 10.8107 19.8102 10.7072L19.4055 9.78009C19.0384 8.94713 18.2196 8.41064 17.3066 8.41064H13.9747C13.0665 8.41064 12.2429 8.94713 11.8759 9.78009L11.4712 10.7072C11.217 11.2813 10.6476 11.6531 10.0217 11.6531H6.89221C5.67807 11.6531 4.69922 12.6366 4.69922 13.8461V23.3993C4.69922 24.6134 5.68277 25.5923 6.89221 25.5923H24.3985C25.6127 25.5923 26.5915 24.6087 26.5915 23.3993V18.8815C26.5962 18.6227 26.3751 18.4015 26.1021 18.4015ZM8.51578 14.5426H7.31105C7.1181 14.5426 6.9581 14.3826 6.9581 14.1896C6.9581 13.9967 7.1181 13.8367 7.31105 13.8367H8.51108C8.70402 13.8367 8.86403 13.9967 8.86403 14.1896C8.86403 14.3826 8.70873 14.5426 8.51578 14.5426ZM15.6454 23.7946C12.7182 23.7946 10.337 21.4133 10.337 18.4862C10.337 15.5591 12.7182 13.1778 15.6454 13.1778C18.5725 13.1778 20.9537 15.5591 20.9537 18.4862C20.9537 21.4133 18.5725 23.7946 15.6454 23.7946Z" fill="white"/>
</svg>
