<svg width="24" height="24" viewBox="0 0 24 24" fill="none" xmlns="http://www.w3.org/2000/svg">
<path fill-rule="evenodd" clip-rule="evenodd" d="M2 4C2 3.44772 2.44772 3 3 3H5C5.55228 3 6 3.44772 6 4V20C6 20.5523 5.55228 21 5 21H3C2.44772 21 2 20.5523 2 20V4ZM7 4C7 3.44772 7.44772 3 8 3C8.55228 3 9 3.44772 9 4V20C9 20.5523 8.55228 21 8 21C7.44772 21 7 20.5523 7 20V4ZM10 4C10 3.44772 10.4477 3 11 3H12C12.5523 3 13 3.44772 13 4V20C13 20.5523 12.5523 21 12 21H11C10.4477 21 10 20.5523 10 20V4ZM14 4C14 3.44772 14.4477 3 15 3C15.5523 3 16 3.44772 16 4V20C16 20.5523 15.5523 21 15 21C14.4477 21 14 20.5523 14 20V4ZM17 4C17 3.44772 17.4477 3 18 3H19C19.5523 3 20 3.44772 20 4V20C20 20.5523 19.5523 21 19 21H18C17.4477 21 17 20.5523 17 20V4ZM21 4C21 3.44772 21.4477 3 22 3C22.5523 3 23 3.44772 23 4V20C23 20.5523 22.5523 21 22 21C21.4477 21 21 20.5523 21 20V4Z" fill="currentColor"/>
</svg>
