<svg width="24" height="24" viewBox="0 0 24 24" fill="none" xmlns="http://www.w3.org/2000/svg">
<path d="M10.0618 20.4949C9.99363 20.2273 10.2239 20 10.5 20H13.5C13.7762 20 14.0065 20.2273 13.9383 20.4949C13.7181 21.3601 12.9338 22 12 22C11.0663 22 10.282 21.3601 10.0618 20.4949Z" fill="#0A1B39"/>
<path d="M13.0044 4H10.9956L9.96389 4.37114C7.58584 5.22659 6.0002 7.48212 6.0002 10.0093V11.3354C6.0002 12.0691 5.6552 12.7601 5.06874 13.2011C3.02136 14.7405 4.11005 18 6.67157 18H17.3287C19.8903 18 20.979 14.7405 18.9316 13.2011C18.3452 12.7602 18.0002 12.0691 18.0002 11.3354V10.0094C18.0002 7.48215 16.4145 5.2266 14.0364 4.3712L13.0044 4Z" fill="#0A1B39"/>
<path d="M11 3C11 2.44772 11.4477 2 12 2V2C12.5523 2 13 2.44772 13 3V4H11V3Z" fill="#0A1B39"/>
</svg>
