<svg width="28" height="28" viewBox="0 0 28 28" fill="none" xmlns="http://www.w3.org/2000/svg">
<g clip-path="url(#clip0_5197_7401)">
<path d="M2.68713 17.0533V20.3519H2.68845C2.69876 21.1526 2.87626 21.9568 3.24078 22.7173C4.6581 25.6741 8.35386 26.8503 11.4955 25.3444C12.0552 25.0761 12.5596 24.7408 13.0025 24.3541C14.2619 23.2548 15.8447 22.584 17.5085 22.4216C20.8112 22.0994 23.7313 20.034 24.851 16.8526C25.1689 15.9494 25.3172 15.0255 25.3125 14.1123L25.3127 14.1122V10.9785L2.68713 17.0533Z" fill="url(#paint0_linear_5197_7401)"/>
<path d="M2.68713 17.0533V20.3519H2.68845C2.69876 21.1526 2.87626 21.9568 3.24078 22.7173C4.6581 25.6741 8.35386 26.8503 11.4955 25.3444C12.0552 25.0761 12.5596 24.7408 13.0025 24.3541C14.2619 23.2548 15.8447 22.584 17.5085 22.4216C20.8112 22.0994 23.7313 20.034 24.851 16.8526C25.1689 15.9494 25.3172 15.0255 25.3125 14.1123L25.3127 14.1122V10.9785L2.68713 17.0533Z" fill="url(#paint1_linear_5197_7401)"/>
<path d="M2.68713 17.0533V20.3519H2.68845C2.69876 21.1526 2.87626 21.9568 3.24078 22.7173C4.6581 25.6741 8.35386 26.8503 11.4955 25.3444C12.0552 25.0761 12.5596 24.7408 13.0025 24.3541C14.2619 23.2548 15.8447 22.584 17.5085 22.4216C20.8112 22.0994 23.7313 20.034 24.851 16.8526C25.1689 15.9494 25.3172 15.0255 25.3125 14.1123L25.3127 14.1122V10.9785L2.68713 17.0533Z" fill="url(#paint2_linear_5197_7401)"/>
<path d="M19.1031 2.54945C14.3562 0.878767 9.2334 3.14616 7.66097 7.61378C7.64408 7.66173 7.62639 7.71232 7.60789 7.76526C6.94648 9.66197 5.85584 11.3724 4.45862 12.8156C2.72144 14.6099 2.1549 17.2632 3.24074 19.5286C4.65806 22.4855 8.35382 23.6616 11.4955 22.1557C12.0552 21.8874 12.5595 21.5521 13.0024 21.1655C14.2618 20.0661 15.8446 19.3953 17.5085 19.2329C20.8111 18.9107 23.7312 16.8453 24.851 13.6639C26.4234 9.19623 23.85 4.22013 19.1031 2.54945Z" fill="url(#paint3_linear_5197_7401)"/>
<path d="M19.1031 2.54945C14.3562 0.878767 9.2334 3.14616 7.66097 7.61378C7.64408 7.66173 7.62639 7.71232 7.60789 7.76526C6.94648 9.66197 5.85584 11.3724 4.45862 12.8156C2.72144 14.6099 2.1549 17.2632 3.24074 19.5286C4.65806 22.4855 8.35382 23.6616 11.4955 22.1557C12.0552 21.8874 12.5595 21.5521 13.0024 21.1655C14.2618 20.0661 15.8446 19.3953 17.5085 19.2329C20.8111 18.9107 23.7312 16.8453 24.851 13.6639C26.4234 9.19623 23.85 4.22013 19.1031 2.54945Z" fill="url(#paint4_linear_5197_7401)"/>
<path d="M24.8511 13.6639C23.7312 16.8453 20.8109 18.9108 17.5085 19.233C15.8443 19.3951 14.2616 20.0658 13.0021 21.1654C12.5596 21.5519 12.0549 21.8872 11.4952 22.1555C8.35392 23.6618 4.65788 22.4853 3.2406 19.5288C2.4847 17.951 2.52978 16.1857 3.21369 14.653L15.8664 2.00025C16.934 1.99474 18.028 2.17121 19.1028 2.54947C23.85 4.22011 26.4234 9.19597 24.8511 13.6639Z" fill="url(#paint5_linear_5197_7401)"/>
<path d="M19.1031 2.54949C17.5929 2.01796 16.0448 1.88563 14.585 2.09532V20.0928C15.4912 19.6262 16.4843 19.333 17.5085 19.233C20.8112 18.9108 23.7313 16.8454 24.851 13.664C26.4234 9.19626 23.85 4.22017 19.1031 2.54949Z" fill="url(#paint6_linear_5197_7401)"/>
<path d="M8.63935 21.4369C6.8137 21.4369 5.21996 20.478 4.4801 18.9345C3.66886 17.2421 4.04801 15.2155 5.44603 13.7716C7.02542 12.1402 8.18942 10.2717 8.90566 8.21775L8.95756 8.06966C9.44951 6.67187 10.3749 5.48867 11.6336 4.6482C12.8818 3.81479 14.3617 3.37427 15.9134 3.37427C16.8382 3.37427 17.7578 3.5329 18.6468 3.8458C22.6712 5.26222 24.8728 9.46189 23.5545 13.2075C23.1046 14.4858 22.2828 15.5959 21.178 16.4178C20.0888 17.2281 18.7738 17.7285 17.375 17.865C15.3998 18.0577 13.5753 18.841 12.0986 20.13C11.7405 20.4426 11.3378 20.7071 10.9014 20.9162C10.1807 21.2617 9.41968 21.4369 8.63949 21.4369C8.63944 21.4369 8.6394 21.4369 8.63935 21.4369Z" fill="url(#paint7_linear_5197_7401)"/>
<path d="M12.682 11.1193L10.653 11.5084C9.86409 11.6597 9.28221 12.333 9.24668 13.1355L9.18635 14.4994C9.15002 15.3201 9.69435 16.0537 10.4903 16.2569L13.5469 17.0373C14.0212 17.1584 14.5247 17.0735 14.933 16.8035L15.0134 16.7503C15.8519 16.1958 16.0451 15.0469 15.4339 14.2487L15.1013 13.8142C14.8845 13.5311 14.7603 13.1881 14.7454 12.8319L14.742 12.7509C14.6979 11.6919 13.7229 10.9197 12.682 11.1193Z" fill="url(#paint8_linear_5197_7401)"/>
<path d="M18.5838 8.40198C18.7046 8.78725 18.5004 9.19925 18.1208 9.33657L17.6034 9.52372C16.2871 9.99987 15.4736 11.3215 15.6414 12.7112C15.8453 14.3989 17.407 15.5819 19.0868 15.3213L19.7454 15.2191C21.3286 14.9734 22.5814 13.7498 22.8641 12.1727C23.1506 10.5749 22.3775 8.97398 20.9479 8.20499L19.6605 7.51248C19.0651 7.19215 18.3816 7.75685 18.5838 8.40198Z" fill="url(#paint9_linear_5197_7401)"/>
<path d="M16.1624 9.56732L17.1635 8.80977C17.488 8.56417 17.7237 8.21951 17.835 7.82798L18.0681 7.00737C18.3508 6.01245 17.7735 4.97673 16.7787 4.69377L15.3892 4.29861C14.8774 4.15306 14.3278 4.23207 13.8777 4.51593L12.6507 5.28972C11.588 5.95984 11.4733 7.46549 12.4221 8.28887L13.8044 9.4884C14.4731 10.0686 15.4565 10.1015 16.1624 9.56732Z" fill="url(#paint10_linear_5197_7401)"/>
<path d="M11.7663 8.53436L12.1457 8.92735C12.5841 9.38142 12.4063 10.1368 11.8114 10.3475L10.9508 10.6524C10.1581 10.9333 9.46955 10.0349 9.94687 9.34246L10.4279 8.64453C10.7391 8.19328 11.3856 8.14006 11.7663 8.53436Z" fill="url(#paint11_linear_5197_7401)"/>
<path d="M9.78115 17.9962C11.1929 17.9962 12.3374 17.0363 12.3374 15.8522C12.3374 14.6681 11.1929 13.7083 9.78115 13.7083C8.36938 13.7083 7.22491 14.6681 7.22491 15.8522C7.22491 17.0363 8.36938 17.9962 9.78115 17.9962Z" fill="url(#paint12_linear_5197_7401)"/>
<path d="M7.22491 15.8524C7.22491 17.0365 8.36939 17.9963 9.78115 17.9963C11.1929 17.9963 12.3374 17.0365 12.3374 15.8524C12.3374 15.4882 12.2288 15.1455 12.0378 14.8451H7.52444C7.33348 15.1455 7.22491 15.4882 7.22491 15.8524Z" fill="url(#paint13_linear_5197_7401)"/>
<path d="M12.3374 15.8524C12.3374 14.8696 11.5488 14.042 10.4736 13.7887L7.47827 16.784C7.89164 17.5014 8.76745 17.9964 9.78114 17.9964C11.193 17.9963 12.3374 17.0365 12.3374 15.8524Z" fill="url(#paint14_linear_5197_7401)"/>
</g>
<defs>
<linearGradient id="paint0_linear_5197_7401" x1="7.76793" y1="18.4893" x2="20.9988" y2="18.4893" gradientUnits="userSpaceOnUse">
<stop stop-color="#F89580"/>
<stop offset="1" stop-color="#C4573A"/>
</linearGradient>
<linearGradient id="paint1_linear_5197_7401" x1="14.3335" y1="17.4033" x2="15.7079" y2="23.3956" gradientUnits="userSpaceOnUse">
<stop stop-color="#C4573A" stop-opacity="0"/>
<stop offset="0.241" stop-color="#BF5539" stop-opacity="0.241"/>
<stop offset="0.524" stop-color="#B15036" stop-opacity="0.524"/>
<stop offset="0.827" stop-color="#994631" stop-opacity="0.827"/>
<stop offset="1" stop-color="#883F2E"/>
</linearGradient>
<linearGradient id="paint2_linear_5197_7401" x1="15.9044" y1="18.4893" x2="23.6451" y2="18.4893" gradientUnits="userSpaceOnUse">
<stop stop-color="#C4573A" stop-opacity="0"/>
<stop offset="0.241" stop-color="#BF5539" stop-opacity="0.241"/>
<stop offset="0.524" stop-color="#B15036" stop-opacity="0.524"/>
<stop offset="0.827" stop-color="#994631" stop-opacity="0.827"/>
<stop offset="1" stop-color="#883F2E"/>
</linearGradient>
<linearGradient id="paint3_linear_5197_7401" x1="6.55796" y1="2.27194" x2="18.8445" y2="20.9903" gradientUnits="userSpaceOnUse">
<stop stop-color="#FFFAF8"/>
<stop offset="1" stop-color="#FFDFCF"/>
</linearGradient>
<linearGradient id="paint4_linear_5197_7401" x1="13.9999" y1="18.4551" x2="13.9999" y2="22.6883" gradientUnits="userSpaceOnUse">
<stop stop-color="#FFA78F" stop-opacity="0"/>
<stop offset="0.898" stop-color="#FFA78F" stop-opacity="0.898"/>
<stop offset="1" stop-color="#FFA78F"/>
</linearGradient>
<linearGradient id="paint5_linear_5197_7401" x1="15.6318" y1="16.9695" x2="17.1162" y2="19.9382" gradientUnits="userSpaceOnUse">
<stop stop-color="#FFA78F" stop-opacity="0"/>
<stop offset="0.898" stop-color="#FFA78F" stop-opacity="0.898"/>
<stop offset="1" stop-color="#FFA78F"/>
</linearGradient>
<linearGradient id="paint6_linear_5197_7401" x1="20.8522" y1="11.0467" x2="25.3052" y2="11.0467" gradientUnits="userSpaceOnUse">
<stop stop-color="#FFA78F" stop-opacity="0"/>
<stop offset="0.898" stop-color="#FFA78F" stop-opacity="0.898"/>
<stop offset="1" stop-color="#FFA78F"/>
</linearGradient>
<linearGradient id="paint7_linear_5197_7401" x1="6.94726" y1="6.51907" x2="21.7075" y2="20.9495" gradientUnits="userSpaceOnUse">
<stop stop-color="#FE646F"/>
<stop offset="1" stop-color="#C41926"/>
</linearGradient>
<linearGradient id="paint8_linear_5197_7401" x1="4.6543" y1="9.15013" x2="36.2534" y2="28.817" gradientUnits="userSpaceOnUse">
<stop stop-color="#A72B2B" stop-opacity="0"/>
<stop offset="0.176" stop-color="#9D2A28" stop-opacity="0.176"/>
<stop offset="0.484" stop-color="#80271E" stop-opacity="0.484"/>
<stop offset="0.885" stop-color="#512210" stop-opacity="0.885"/>
<stop offset="1" stop-color="#42210B"/>
</linearGradient>
<linearGradient id="paint9_linear_5197_7401" x1="11.9067" y1="7.1393" x2="41.7036" y2="25.6845" gradientUnits="userSpaceOnUse">
<stop stop-color="#A72B2B" stop-opacity="0"/>
<stop offset="0.176" stop-color="#9D2A28" stop-opacity="0.176"/>
<stop offset="0.484" stop-color="#80271E" stop-opacity="0.484"/>
<stop offset="0.885" stop-color="#512210" stop-opacity="0.885"/>
<stop offset="1" stop-color="#42210B"/>
</linearGradient>
<linearGradient id="paint10_linear_5197_7401" x1="8.33146" y1="2.72996" x2="34.7314" y2="19.1609" gradientUnits="userSpaceOnUse">
<stop stop-color="#A72B2B" stop-opacity="0"/>
<stop offset="0.176" stop-color="#9D2A28" stop-opacity="0.176"/>
<stop offset="0.484" stop-color="#80271E" stop-opacity="0.484"/>
<stop offset="0.885" stop-color="#512210" stop-opacity="0.885"/>
<stop offset="1" stop-color="#42210B"/>
</linearGradient>
<linearGradient id="paint11_linear_5197_7401" x1="8.57345" y1="8.0378" x2="18.7082" y2="14.3456" gradientUnits="userSpaceOnUse">
<stop stop-color="#A72B2B" stop-opacity="0"/>
<stop offset="0.176" stop-color="#9D2A28" stop-opacity="0.176"/>
<stop offset="0.484" stop-color="#80271E" stop-opacity="0.484"/>
<stop offset="0.885" stop-color="#512210" stop-opacity="0.885"/>
<stop offset="1" stop-color="#42210B"/>
</linearGradient>
<linearGradient id="paint12_linear_5197_7401" x1="8.90515" y1="14.6334" x2="10.5911" y2="16.9791" gradientUnits="userSpaceOnUse">
<stop stop-color="#FFFAF8"/>
<stop offset="1" stop-color="#FFDFCF"/>
</linearGradient>
<linearGradient id="paint13_linear_5197_7401" x1="9.78115" y1="15.7614" x2="9.78115" y2="17.9607" gradientUnits="userSpaceOnUse">
<stop stop-color="#FFA78F" stop-opacity="0"/>
<stop offset="0.898" stop-color="#FFA78F" stop-opacity="0.898"/>
<stop offset="1" stop-color="#FFA78F"/>
</linearGradient>
<linearGradient id="paint14_linear_5197_7401" x1="9.7002" y1="15.7716" x2="11.3132" y2="17.3846" gradientUnits="userSpaceOnUse">
<stop stop-color="#FFA78F" stop-opacity="0"/>
<stop offset="0.898" stop-color="#FFA78F" stop-opacity="0.898"/>
<stop offset="1" stop-color="#FFA78F"/>
</linearGradient>
<clipPath id="clip0_5197_7401">
<rect width="24" height="24" fill="white" transform="translate(2 2)"/>
</clipPath>
</defs>
</svg>
