<svg width="28" height="28" viewBox="0 0 28 28" fill="none" xmlns="http://www.w3.org/2000/svg">
<path d="M24.879 16.3552C24.879 15.8858 24.7572 15.3204 24.5679 14.6998C24.4327 14.2564 23.8372 14.1728 23.5867 14.5629C23.5792 14.5747 23.5716 14.5864 23.564 14.5981C23.3319 14.9556 22.7864 14.8671 22.676 14.4554C21.9661 11.8092 20.3869 8.29089 21.196 6.83951C21.339 6.58304 21.1421 6.26708 20.8492 6.28685C20.1847 6.33165 19.4307 6.62238 18.7495 7.12826C18.5712 7.26068 18.3271 7.22016 18.2047 7.0348L15.3878 2.7668C14.7131 1.7444 13.2129 1.7444 12.5381 2.7668L9.04294 8.06252C8.90092 8.27767 8.58949 8.29127 8.42991 8.08878C7.99165 7.53245 7.54534 7.06219 7.14511 6.71311C6.8516 6.45706 6.4093 6.75315 6.53725 7.12101C7.18798 8.9916 6.29946 11.3453 5.58233 13.6309C5.51471 13.7972 5.42986 14.1398 5.3461 14.5767C5.26374 15.0061 4.70271 15.1243 4.45664 14.7628C4.45203 14.7561 4.44746 14.7493 4.4429 14.7426C4.17259 14.3432 3.55381 14.4679 3.4565 14.9402C3.17556 16.3037 2.9524 18.2508 3.29367 18.9055C4.34069 22.7861 8.446 26 13.9552 26H13.9553C13.9565 26 13.9578 25.9999 13.9591 25.9999C13.9604 25.9999 13.9617 26 13.963 26C13.9754 26 13.9877 25.9995 14 25.9995C20.6579 25.9784 25.2542 21.2613 24.8537 16.3612C24.8621 16.3589 24.8708 16.3574 24.879 16.3552Z" fill="url(#paint0_linear_5197_7387)"/>
<path d="M20.9431 15.7974C20.3523 13.9143 19.6204 11.9752 20.1537 10.4331C20.2595 10.1272 19.8979 9.87872 19.654 10.0915C19.3239 10.3794 18.9558 10.7672 18.5943 11.2261C18.4627 11.3931 18.2058 11.3819 18.0887 11.2045L15.2057 6.83636C14.6491 5.99302 13.4118 5.99302 12.8552 6.83636L10.5317 10.3567C10.4316 10.5085 10.2258 10.5401 10.0797 10.4319C9.51862 10.0159 8.89778 9.77674 8.35067 9.73985C8.10483 9.72323 7.95034 9.98714 8.06865 10.2033C8.90483 11.7312 6.579 15.9953 6.57886 18.0446C6.5845 18.0464 6.59043 18.0477 6.59617 18.0494C6.32229 22.1004 9.47227 25.9999 14.0304 25.9999H14.0305C17.7886 25.9999 20.589 23.349 21.3032 20.1482C21.6397 19.3677 21.1718 16.3596 20.9431 15.7974Z" fill="url(#paint1_linear_5197_7387)"/>
<path d="M6.57892 18.0446C6.58457 18.0465 6.59049 18.0477 6.59624 18.0495C6.32235 22.1004 9.47233 26 14.0305 26H14.0305C17.7887 26 20.5891 23.3491 21.3033 20.1482C21.6398 19.3677 21.1719 16.3596 20.9432 15.7975C20.7659 15.2324 20.5761 14.6623 20.4113 14.0994H7.58306C7.11737 15.5596 6.57897 17.0585 6.57892 18.0446Z" fill="url(#paint2_linear_5197_7387)"/>
<path d="M13.4422 15.5846L10.7065 19.7296C8.93228 22.4178 10.8601 26 14.0809 26C17.3017 26 19.2296 22.4178 17.4554 19.7297L14.7197 15.5847C14.4172 15.1263 13.7447 15.1263 13.4422 15.5846Z" fill="url(#paint3_linear_5197_7387)"/>
<path d="M5.34616 14.5767C5.26381 15.0061 4.70277 15.1243 4.4567 14.7628C4.45209 14.7561 4.44752 14.7493 4.44296 14.7426C4.17265 14.3432 3.55388 14.4679 3.45656 14.9402C3.17562 16.3037 2.95246 18.2509 3.29373 18.9055C4.3407 22.7861 8.44602 26 13.9552 26H13.9553C13.9566 26 13.9578 26 13.9591 26C13.9604 26 13.9617 26 13.963 26C13.9754 26 13.9877 25.9996 14 25.9995C20.6579 25.9784 25.2543 21.2613 24.8537 16.3612C24.8621 16.359 24.8708 16.3575 24.8791 16.3553C24.879 15.8859 24.7572 15.3205 24.5679 14.6998C24.4327 14.2564 23.8372 14.1729 23.5867 14.563C23.5792 14.5748 23.5716 14.5865 23.564 14.5981C23.3319 14.9557 22.7865 14.8671 22.676 14.4554C22.6447 14.3385 22.6111 14.2194 22.5766 14.0994H5.44705C5.41402 14.2398 5.38004 14.4 5.34616 14.5767Z" fill="url(#paint4_linear_5197_7387)"/>
<path d="M23.4134 5.12301C23.3423 4.81821 22.9083 4.81821 22.8372 5.12301C22.6859 5.77157 22.3562 6.36484 21.8853 6.83576C21.2004 7.52061 21.2004 8.63101 21.8853 9.31586C22.5701 10.0007 23.6805 10.0007 24.3654 9.31586C25.0502 8.63101 25.0502 7.52061 24.3654 6.83576C23.8945 6.36484 23.5647 5.77157 23.4134 5.12301Z" fill="url(#paint5_linear_5197_7387)"/>
<path d="M21.8853 9.31592C22.5701 10.0008 23.6805 10.0008 24.3654 9.31592C24.7323 8.94901 24.9024 8.46002 24.8762 7.97974H21.3745C21.3483 8.46002 21.5184 8.94901 21.8853 9.31592Z" fill="url(#paint6_linear_5197_7387)"/>
<path d="M8.17176 6.14893C8.91244 6.14893 9.51289 5.54849 9.51289 4.8078C9.51289 4.06712 8.91244 3.46667 8.17176 3.46667C7.43107 3.46667 6.83063 4.06712 6.83063 4.8078C6.83063 5.54849 7.43107 6.14893 8.17176 6.14893Z" fill="url(#paint7_linear_5197_7387)"/>
<defs>
<linearGradient id="paint0_linear_5197_7387" x1="9.0061" y1="8.43146" x2="16.735" y2="19.5802" gradientUnits="userSpaceOnUse">
<stop stop-color="#FEF0AE"/>
<stop offset="1" stop-color="#FAC600"/>
</linearGradient>
<linearGradient id="paint1_linear_5197_7387" x1="11.8181" y1="12.393" x2="16.2534" y2="20.7285" gradientUnits="userSpaceOnUse">
<stop stop-color="#FEF0AE"/>
<stop offset="1" stop-color="#FAC600"/>
</linearGradient>
<linearGradient id="paint2_linear_5197_7387" x1="13.6932" y1="17.5186" x2="16.6756" y2="25.3952" gradientUnits="userSpaceOnUse">
<stop stop-color="#FEA613" stop-opacity="0"/>
<stop offset="0.241" stop-color="#FDA315" stop-opacity="0.241"/>
<stop offset="0.435" stop-color="#FB991A" stop-opacity="0.435"/>
<stop offset="0.613" stop-color="#F88822" stop-opacity="0.613"/>
<stop offset="0.78" stop-color="#F2702E" stop-opacity="0.78"/>
<stop offset="0.94" stop-color="#EC523D" stop-opacity="0.94"/>
<stop offset="1" stop-color="#E94444"/>
</linearGradient>
<linearGradient id="paint3_linear_5197_7387" x1="11.6311" y1="12.2565" x2="15.1489" y2="26.1744" gradientUnits="userSpaceOnUse">
<stop stop-color="#FEA613" stop-opacity="0"/>
<stop offset="0.241" stop-color="#FDA315" stop-opacity="0.241"/>
<stop offset="0.435" stop-color="#FB991A" stop-opacity="0.435"/>
<stop offset="0.613" stop-color="#F88822" stop-opacity="0.613"/>
<stop offset="0.78" stop-color="#F2702E" stop-opacity="0.78"/>
<stop offset="0.94" stop-color="#EC523D" stop-opacity="0.94"/>
<stop offset="1" stop-color="#E94444"/>
</linearGradient>
<linearGradient id="paint4_linear_5197_7387" x1="14" y1="17.5294" x2="14" y2="26" gradientUnits="userSpaceOnUse">
<stop stop-color="#FEA613" stop-opacity="0"/>
<stop offset="0.241" stop-color="#FDA315" stop-opacity="0.241"/>
<stop offset="0.435" stop-color="#FB991A" stop-opacity="0.435"/>
<stop offset="0.613" stop-color="#F88822" stop-opacity="0.613"/>
<stop offset="0.78" stop-color="#F2702E" stop-opacity="0.78"/>
<stop offset="0.94" stop-color="#EC523D" stop-opacity="0.94"/>
<stop offset="1" stop-color="#E94444"/>
</linearGradient>
<linearGradient id="paint5_linear_5197_7387" x1="22.2269" y1="6.764" x2="24.4964" y2="9.03355" gradientUnits="userSpaceOnUse">
<stop stop-color="#FEF0AE"/>
<stop offset="1" stop-color="#FAC600"/>
</linearGradient>
<linearGradient id="paint6_linear_5197_7387" x1="23.1253" y1="8.4676" x2="23.1253" y2="10.2403" gradientUnits="userSpaceOnUse">
<stop stop-color="#FEA613" stop-opacity="0"/>
<stop offset="0.241" stop-color="#FDA315" stop-opacity="0.241"/>
<stop offset="0.435" stop-color="#FB991A" stop-opacity="0.435"/>
<stop offset="0.613" stop-color="#F88822" stop-opacity="0.613"/>
<stop offset="0.78" stop-color="#F2702E" stop-opacity="0.78"/>
<stop offset="0.94" stop-color="#EC523D" stop-opacity="0.94"/>
<stop offset="1" stop-color="#E94444"/>
</linearGradient>
<linearGradient id="paint7_linear_5197_7387" x1="7.69632" y1="4.24846" x2="8.89623" y2="5.66013" gradientUnits="userSpaceOnUse">
<stop stop-color="#FEF0AE"/>
<stop offset="1" stop-color="#FAC600"/>
</linearGradient>
</defs>
</svg>
