<svg width="16" height="16" viewBox="0 0 16 16" fill="none" xmlns="http://www.w3.org/2000/svg">
<path fill-rule="evenodd" clip-rule="evenodd" d="M1.33301 8.00016C1.33301 4.31826 4.31778 1.3335 7.99967 1.3335C11.6816 1.3335 14.6663 4.31826 14.6663 8.00016C14.6663 11.6821 11.6816 14.6668 7.99967 14.6668C4.31778 14.6668 1.33301 11.6821 1.33301 8.00016ZM10.4711 7.13823C10.7314 6.87788 10.7314 6.45577 10.4711 6.19542C10.2107 5.93508 9.78862 5.93508 9.52827 6.19542L7.33301 8.39069L6.47108 7.52876C6.21073 7.26841 5.78862 7.26841 5.52827 7.52876C5.26792 7.78911 5.26792 8.21122 5.52827 8.47157L6.8616 9.8049C7.12195 10.0652 7.54406 10.0652 7.80441 9.8049L10.4711 7.13823Z" fill="#3DA43B"/>
</svg>
