<svg width="24" height="24" viewBox="0 0 24 24" fill="none" xmlns="http://www.w3.org/2000/svg">
<path d="M21.7499 8.50005C21.745 8.91724 21.6247 9.32491 21.4023 9.67791C21.1799 10.0309 20.8641 10.3155 20.4899 10.5L19.4899 16.24H4.54995L3.54995 10.5C3.18868 10.323 2.88149 10.0524 2.66037 9.71627C2.43925 9.38018 2.31229 8.99095 2.29271 8.58912C2.27312 8.18729 2.36164 7.78755 2.54903 7.43156C2.73643 7.07556 3.01585 6.77631 3.35818 6.56499C3.70052 6.35367 4.09326 6.23801 4.49549 6.23004C4.89772 6.22208 5.29472 6.3221 5.64516 6.5197C5.9956 6.7173 6.28664 7.00525 6.48799 7.35355C6.68933 7.70184 6.7936 8.09776 6.78995 8.50005C6.79355 8.84689 6.71472 9.18963 6.55995 9.50005L8.72995 11.67L10.3399 7.00005C10.0453 6.678 9.85066 6.2772 9.7798 5.84648C9.70893 5.41576 9.76488 4.97373 9.94083 4.57426C10.1168 4.17478 10.4051 3.83511 10.7707 3.59664C11.1364 3.35817 11.5634 3.2312 11.9999 3.2312C12.4365 3.2312 12.8635 3.35817 13.2291 3.59664C13.5948 3.83511 13.8831 4.17478 14.0591 4.57426C14.235 4.97373 14.291 5.41576 14.2201 5.84648C14.1492 6.2772 13.9546 6.678 13.6599 7.00005L15.3099 11.62L17.4799 9.45005C17.3252 9.13963 17.2463 8.79689 17.2499 8.45005C17.2499 7.85331 17.487 7.28102 17.909 6.85906C18.3309 6.4371 18.9032 6.20005 19.4999 6.20005C20.0967 6.20005 20.669 6.4371 21.0909 6.85906C21.5129 7.28102 21.7499 7.85331 21.7499 8.45005V8.50005ZM5.10995 19.31C5.18257 19.7135 5.39454 20.0787 5.70888 20.3419C6.02322 20.605 6.41998 20.7495 6.82995 20.75H17.1699C17.5799 20.7495 17.9767 20.605 18.291 20.3419C18.6054 20.0787 18.8173 19.7135 18.8899 19.31L19.1699 17.75H4.82995L5.10995 19.31Z" fill="#0A1B39"/>
</svg>
