<svg width="28" height="28" viewBox="0 0 28 28" fill="none" xmlns="http://www.w3.org/2000/svg">
<path d="M22.0953 20.5203C24.2516 20.5203 26 18.7719 26 16.6156C26 15.036 25.0578 13.6719 23.7078 13.0578C23.9047 12.6875 24.0172 12.2656 24.0172 11.8156C24.0172 10.3625 22.8406 9.18596 21.3875 9.18596C20.8625 9.18596 20.3797 9.34065 19.9672 9.60315C19.3672 8.52502 18.2187 7.79846 16.9016 7.79846C15.2094 7.79846 13.7984 8.99377 13.4656 10.5875C13.0109 10.4516 12.5281 10.3813 12.0312 10.3813C9.2375 10.3813 6.96875 12.65 6.96875 15.4531C6.96875 18.2516 9.2375 20.5203 12.0359 20.5203H22.0953Z" fill="url(#paint0_linear_5197_7490)"/>
<path d="M22.0953 20.5203C24.2516 20.5203 26 18.7719 26 16.6156C26 15.036 25.0578 13.6719 23.7078 13.0578C23.9047 12.6875 24.0172 12.2656 24.0172 11.8156C24.0172 10.3625 22.8406 9.18596 21.3875 9.18596C20.8625 9.18596 20.3797 9.34065 19.9672 9.60315C19.3672 8.52502 18.2187 7.79846 16.9016 7.79846C15.2094 7.79846 13.7984 8.99377 13.4656 10.5875C13.0109 10.4516 12.5281 10.3813 12.0312 10.3813C9.2375 10.3813 6.96875 12.65 6.96875 15.4531C6.96875 18.2516 9.2375 20.5203 12.0359 20.5203H22.0953Z" fill="url(#paint1_linear_5197_7490)"/>
<path d="M26 16.6156C26 18.7719 24.2516 20.5203 22.0953 20.5203H12.0359C9.2375 20.5203 6.96875 18.2516 6.96875 15.4531C6.96875 15.2563 6.97812 15.0641 7.00156 14.8766H25.5922C25.8547 15.3969 26 15.9922 26 16.6156Z" fill="url(#paint2_linear_5197_7490)"/>
<path d="M22.0953 20.5203C24.2518 20.5203 26 18.7721 26 16.6156C26 14.4591 24.2518 12.7109 22.0953 12.7109C19.9388 12.7109 18.1906 14.4591 18.1906 16.6156C18.1906 18.7721 19.9388 20.5203 22.0953 20.5203Z" fill="url(#paint3_linear_5197_7490)"/>
<path d="M24.0172 11.8156C24.0172 12.2656 23.9047 12.6875 23.7031 13.0578C23.2109 12.8328 22.6672 12.7109 22.0906 12.7109C21.1062 12.7109 20.2109 13.0719 19.5219 13.6719C19.0484 13.1937 18.7531 12.5375 18.7531 11.8156C18.7531 10.3625 19.9297 9.18591 21.3828 9.18591C22.8406 9.18591 24.0172 10.3672 24.0172 11.8156Z" fill="url(#paint4_linear_5197_7490)"/>
<path d="M18.7578 11.8156C18.7578 12.5328 19.0438 13.1797 19.5078 13.6531C18.8656 14.3656 17.9375 14.811 16.9016 14.811C14.9656 14.811 13.3953 13.2406 13.3953 11.3047C13.3953 9.36877 14.9656 7.79846 16.9016 7.79846C18.2188 7.79846 19.3672 8.52502 19.9672 9.60315C19.2406 10.0719 18.7578 10.8875 18.7578 11.8156Z" fill="url(#paint5_linear_5197_7490)"/>
<path d="M3.35002 12.2703C3.35002 11.9 3.05002 11.6 2.67971 11.6C2.3094 11.6 2.0094 11.9 2.0094 12.2703C2.0094 12.6406 2.3094 12.9406 2.67971 12.9406C3.05002 12.9406 3.35002 12.6406 3.35002 12.2703Z" fill="url(#paint6_linear_5197_7490)"/>
<path d="M17.1594 11.6C16.7891 11.6 16.4891 11.9 16.4891 12.2703C16.4891 12.6406 16.7891 12.9406 17.1594 12.9406C17.5297 12.9406 17.8297 12.6406 17.8297 12.2703C17.8344 11.9 17.5297 11.6 17.1594 11.6Z" fill="url(#paint7_linear_5197_7490)"/>
<path d="M9.9172 18.8422C9.54689 18.8422 9.24689 19.1422 9.24689 19.5125C9.24689 19.8828 9.54689 20.1828 9.9172 20.1828C10.2875 20.1828 10.5875 19.8828 10.5875 19.5125C10.5922 19.1422 10.2922 18.8422 9.9172 18.8422Z" fill="url(#paint8_linear_5197_7490)"/>
<path d="M9.9172 4.35779C9.54689 4.35779 9.24689 4.65779 9.24689 5.0281C9.24689 5.39841 9.54689 5.69841 9.9172 5.69841C10.2875 5.69841 10.5875 5.39841 10.5875 5.0281C10.5922 4.65779 10.2922 4.35779 9.9172 4.35779Z" fill="url(#paint9_linear_5197_7490)"/>
<path d="M3.31252 15.3125C2.99377 15.5 2.88127 15.9078 3.06877 16.2312C3.25627 16.55 3.66408 16.6625 3.98752 16.475C4.30627 16.2875 4.41877 15.8797 4.23127 15.5562C4.04377 15.2328 3.63127 15.125 3.31252 15.3125Z" fill="url(#paint10_linear_5197_7490)"/>
<path d="M16.5266 9.22809C16.8453 9.04059 16.9578 8.63278 16.7703 8.30934C16.5828 7.99059 16.175 7.87809 15.8516 8.06559C15.5281 8.25309 15.4203 8.66091 15.6078 8.98434C15.7953 9.30778 16.2078 9.41559 16.5266 9.22809Z" fill="url(#paint11_linear_5197_7490)"/>
<path d="M13.5406 19.2125C13.9108 19.2125 14.2109 18.9123 14.2109 18.5421C14.2109 18.1719 13.9108 17.8718 13.5406 17.8718C13.1704 17.8718 12.8703 18.1719 12.8703 18.5421C12.8703 18.9123 13.1704 19.2125 13.5406 19.2125Z" fill="url(#paint12_linear_5197_7490)"/>
<path d="M5.96095 5.41715C5.6422 5.60465 5.52971 6.01246 5.71721 6.3359C5.90471 6.65934 6.31252 6.76715 6.63596 6.57965C6.95471 6.39215 7.0672 5.98434 6.8797 5.6609C6.6922 5.34215 6.28439 5.23434 5.96095 5.41715Z" fill="url(#paint13_linear_5197_7490)"/>
<path d="M16.5266 15.3125C16.2078 15.125 15.7953 15.2375 15.6078 15.5563C15.4203 15.875 15.5328 16.2875 15.8516 16.475C16.1703 16.6625 16.5828 16.55 16.7703 16.2313C16.9578 15.9079 16.8453 15.4954 16.5266 15.3125Z" fill="url(#paint14_linear_5197_7490)"/>
<path d="M3.98282 8.07035C3.66407 7.88285 3.25157 7.99535 3.06407 8.3141C2.87657 8.63285 2.98907 9.04535 3.30782 9.23285C3.62657 9.42035 4.03907 9.30785 4.22657 8.9891C4.41407 8.67035 4.30157 8.25317 3.98282 8.07035Z" fill="url(#paint15_linear_5197_7490)"/>
<path d="M6.63596 17.961C6.3172 17.7735 5.90471 17.886 5.71721 18.2047C5.52971 18.5235 5.6422 18.936 5.96095 19.1235C6.2797 19.311 6.6922 19.1985 6.8797 18.8797C7.06252 18.5563 6.95471 18.1485 6.63596 17.961Z" fill="url(#paint16_linear_5197_7490)"/>
<path d="M13.8781 5.41716C13.5594 5.22966 13.1469 5.34216 12.9594 5.66091C12.7719 5.97966 12.8844 6.39216 13.2031 6.57966C13.5219 6.76716 13.9344 6.65466 14.1219 6.33591C14.3047 6.01247 14.1969 5.60466 13.8781 5.41716Z" fill="url(#paint17_linear_5197_7490)"/>
<path d="M9.91721 18.0922C13.1325 18.0922 15.7391 15.4857 15.7391 12.2704C15.7391 9.05503 13.1325 6.44849 9.91721 6.44849C6.70188 6.44849 4.09534 9.05503 4.09534 12.2704C4.09534 15.4857 6.70188 18.0922 9.91721 18.0922Z" fill="url(#paint18_linear_5197_7490)"/>
<path d="M4.09998 12.2703C4.09998 15.4859 6.70623 18.0922 9.92185 18.0922C13.1375 18.0922 15.7437 15.4859 15.7437 12.2703C15.7437 11.839 15.6968 11.4172 15.6078 11.014H4.23591C4.14685 11.4172 4.09998 11.839 4.09998 12.2703Z" fill="url(#paint19_linear_5197_7490)"/>
<path d="M9.91718 6.44849C9.44843 6.44849 8.99374 6.50474 8.5578 6.60786V17.9235C8.99374 18.0266 9.44843 18.0829 9.91718 18.0829C13.1328 18.0829 15.7391 15.4766 15.7391 12.261C15.7391 9.05474 13.1328 6.44849 9.91718 6.44849Z" fill="url(#paint20_linear_5197_7490)"/>
<path d="M16.7469 16.564V20.5203H22.1C22.55 20.5203 22.9813 20.4453 23.3844 20.3047L18.1906 15.1156L16.7469 16.564Z" fill="url(#paint21_linear_5197_7490)"/>
<path d="M18.5562 17.6141C18.7156 17.3141 18.8094 16.9719 18.8094 16.6109C18.8094 15.4391 17.8578 14.4875 16.6859 14.4875C16.2641 14.4875 15.8703 14.6094 15.5375 14.825C15.0547 13.9578 14.1266 13.3672 13.0625 13.3672C11.6984 13.3672 10.5547 14.3328 10.2875 15.6219C9.92187 15.5141 9.53281 15.4578 9.12969 15.4578C7.40937 15.4578 5.9375 16.5219 5.32812 18.0219C5.16875 17.9937 5.00469 17.9797 4.83594 17.9797C3.27031 17.975 2 19.2453 2 20.8109C2 22.3766 3.27031 23.6469 4.83594 23.6469H17.2578C19.0016 23.6469 20.4125 22.2359 20.4125 20.4922C20.4078 19.2125 19.6484 18.1109 18.5562 17.6141Z" fill="url(#paint22_linear_5197_7490)"/>
<path d="M18.5562 17.6141C18.7156 17.3141 18.8094 16.9719 18.8094 16.6109C18.8094 15.4391 17.8578 14.4875 16.6859 14.4875C16.2641 14.4875 15.8703 14.6094 15.5375 14.825C15.0547 13.9578 14.1266 13.3672 13.0625 13.3672C11.6984 13.3672 10.5547 14.3328 10.2875 15.6219C9.92187 15.5141 9.53281 15.4578 9.12969 15.4578C7.40937 15.4578 5.9375 16.5219 5.32812 18.0219C5.16875 17.9937 5.00469 17.9797 4.83594 17.9797C3.27031 17.975 2 19.2453 2 20.8109C2 22.3766 3.27031 23.6469 4.83594 23.6469H17.2578C19.0016 23.6469 20.4125 22.2359 20.4125 20.4922C20.4078 19.2125 19.6484 18.1109 18.5562 17.6141Z" fill="url(#paint23_linear_5197_7490)"/>
<path d="M20.4078 20.4875C20.4078 22.2313 18.9969 23.6422 17.2531 23.6422H4.83125C3.27031 23.6422 2 22.3719 2 20.811C2 20.2625 2.15469 19.7469 2.42656 19.3157H20.1781C20.3281 19.6766 20.4078 20.075 20.4078 20.4875Z" fill="url(#paint24_linear_5197_7490)"/>
<path d="M17.2531 23.6421C18.9954 23.6421 20.4078 22.2297 20.4078 20.4875C20.4078 18.7452 18.9954 17.3328 17.2531 17.3328C15.5109 17.3328 14.0984 18.7452 14.0984 20.4875C14.0984 22.2297 15.5109 23.6421 17.2531 23.6421Z" fill="url(#paint25_linear_5197_7490)"/>
<path d="M18.8094 16.611C18.8094 16.9719 18.7203 17.3141 18.5562 17.6141C18.1578 17.436 17.7172 17.3329 17.2531 17.3329C16.4609 17.3329 15.7344 17.6282 15.1766 18.111C14.7922 17.7266 14.5578 17.1969 14.5578 16.611C14.5578 15.4391 15.5094 14.4875 16.6812 14.4875C17.8578 14.4875 18.8094 15.4391 18.8094 16.611Z" fill="url(#paint26_linear_5197_7490)"/>
<path d="M14.5578 16.6109C14.5578 17.1875 14.7875 17.7125 15.1625 18.0969C14.6422 18.6734 13.8922 19.0344 13.0578 19.0344C11.4922 19.0344 10.2219 17.7641 10.2219 16.1984C10.2219 14.6328 11.4922 13.3672 13.0578 13.3672C14.1219 13.3672 15.05 13.9531 15.5328 14.825C14.9469 15.2 14.5578 15.8609 14.5578 16.6109Z" fill="url(#paint27_linear_5197_7490)"/>
<path d="M13.2219 19.55C13.2219 21.8094 11.3891 23.6469 9.125 23.6469C8.24375 23.6469 7.42344 23.3656 6.75781 22.8922C7.31562 22.3766 7.66719 21.6359 7.66719 20.8109C7.66719 19.4141 6.65937 18.2562 5.32812 18.0219C5.93281 16.5125 7.40469 15.4531 9.125 15.4531C11.3891 15.4531 13.2219 17.2859 13.2219 19.55Z" fill="url(#paint28_linear_5197_7490)"/>
<path d="M13.2219 19.55C13.2219 21.8094 11.3891 23.6469 9.125 23.6469C8.24375 23.6469 7.42344 23.3656 6.75781 22.8922C7.31562 22.3766 7.66719 21.6359 7.66719 20.8109C7.66719 19.4141 6.65937 18.2562 5.32812 18.0219C5.93281 16.5125 7.40469 15.4531 9.125 15.4531C11.3891 15.4531 13.2219 17.2859 13.2219 19.55Z" fill="url(#paint29_linear_5197_7490)"/>
<defs>
<linearGradient id="paint0_linear_5197_7490" x1="19.0554" y1="8.47187" x2="15.4465" y2="18.9477" gradientUnits="userSpaceOnUse">
<stop stop-color="#F5FBFF"/>
<stop offset="0.241" stop-color="#F0F8FE"/>
<stop offset="0.492" stop-color="#E4F2FE"/>
<stop offset="0.746" stop-color="#CFE8FE"/>
<stop offset="1" stop-color="#B3DAFE"/>
</linearGradient>
<linearGradient id="paint1_linear_5197_7490" x1="22.2726" y1="13.4773" x2="12.8493" y2="15.8164" gradientUnits="userSpaceOnUse">
<stop stop-color="#FEF48B" stop-opacity="0"/>
<stop offset="0.12" stop-color="#FEF48B" stop-opacity="0.016"/>
<stop offset="0.245" stop-color="#FEF48E" stop-opacity="0.065"/>
<stop offset="0.372" stop-color="#FEF493" stop-opacity="0.147"/>
<stop offset="0.501" stop-color="#FEF49A" stop-opacity="0.261"/>
<stop offset="0.63" stop-color="#FEF4A3" stop-opacity="0.408"/>
<stop offset="0.761" stop-color="#FEF4AD" stop-opacity="0.588"/>
<stop offset="0.89" stop-color="#FEF4BA" stop-opacity="0.797"/>
<stop offset="1" stop-color="#FFF5C6"/>
</linearGradient>
<linearGradient id="paint2_linear_5197_7490" x1="16.4841" y1="18.0237" x2="16.4841" y2="20.8179" gradientUnits="userSpaceOnUse">
<stop stop-color="#8AC9FE" stop-opacity="0"/>
<stop offset="0.129" stop-color="#89C8FD" stop-opacity="0.019"/>
<stop offset="0.263" stop-color="#88C6FB" stop-opacity="0.075"/>
<stop offset="0.399" stop-color="#87C4F8" stop-opacity="0.168"/>
<stop offset="0.536" stop-color="#85C0F4" stop-opacity="0.298"/>
<stop offset="0.675" stop-color="#83BBEF" stop-opacity="0.466"/>
<stop offset="0.815" stop-color="#7FB5E9" stop-opacity="0.672"/>
<stop offset="0.953" stop-color="#7CAEE1" stop-opacity="0.911"/>
<stop offset="1" stop-color="#7BACDF"/>
</linearGradient>
<linearGradient id="paint3_linear_5197_7490" x1="23.0225" y1="16.616" x2="26.5123" y2="16.616" gradientUnits="userSpaceOnUse">
<stop stop-color="#8AC9FE" stop-opacity="0"/>
<stop offset="0.129" stop-color="#89C8FD" stop-opacity="0.019"/>
<stop offset="0.263" stop-color="#88C6FB" stop-opacity="0.075"/>
<stop offset="0.399" stop-color="#87C4F8" stop-opacity="0.168"/>
<stop offset="0.536" stop-color="#85C0F4" stop-opacity="0.298"/>
<stop offset="0.675" stop-color="#83BBEF" stop-opacity="0.466"/>
<stop offset="0.815" stop-color="#7FB5E9" stop-opacity="0.672"/>
<stop offset="0.953" stop-color="#7CAEE1" stop-opacity="0.911"/>
<stop offset="1" stop-color="#7BACDF"/>
</linearGradient>
<linearGradient id="paint4_linear_5197_7490" x1="21.6616" y1="11.4509" x2="24.502" y2="11.4974" gradientUnits="userSpaceOnUse">
<stop stop-color="#8AC9FE" stop-opacity="0"/>
<stop offset="0.129" stop-color="#89C8FD" stop-opacity="0.019"/>
<stop offset="0.263" stop-color="#88C6FB" stop-opacity="0.075"/>
<stop offset="0.399" stop-color="#87C4F8" stop-opacity="0.168"/>
<stop offset="0.536" stop-color="#85C0F4" stop-opacity="0.298"/>
<stop offset="0.675" stop-color="#83BBEF" stop-opacity="0.466"/>
<stop offset="0.815" stop-color="#7FB5E9" stop-opacity="0.672"/>
<stop offset="0.953" stop-color="#7CAEE1" stop-opacity="0.911"/>
<stop offset="1" stop-color="#7BACDF"/>
</linearGradient>
<linearGradient id="paint5_linear_5197_7490" x1="18.3891" y1="10.0337" x2="20.3448" y2="8.3574" gradientUnits="userSpaceOnUse">
<stop stop-color="#8AC9FE" stop-opacity="0"/>
<stop offset="0.129" stop-color="#89C8FD" stop-opacity="0.019"/>
<stop offset="0.263" stop-color="#88C6FB" stop-opacity="0.075"/>
<stop offset="0.399" stop-color="#87C4F8" stop-opacity="0.168"/>
<stop offset="0.536" stop-color="#85C0F4" stop-opacity="0.298"/>
<stop offset="0.675" stop-color="#83BBEF" stop-opacity="0.466"/>
<stop offset="0.815" stop-color="#7FB5E9" stop-opacity="0.672"/>
<stop offset="0.953" stop-color="#7CAEE1" stop-opacity="0.911"/>
<stop offset="1" stop-color="#7BACDF"/>
</linearGradient>
<linearGradient id="paint6_linear_5197_7490" x1="2.2741" y1="11.8672" x2="3.10754" y2="12.7006" gradientUnits="userSpaceOnUse">
<stop stop-color="#FEF48B"/>
<stop offset="0.165" stop-color="#FDF286"/>
<stop offset="0.335" stop-color="#FDEE7A"/>
<stop offset="0.509" stop-color="#FCE765"/>
<stop offset="0.684" stop-color="#FCDE48"/>
<stop offset="0.859" stop-color="#FBD123"/>
<stop offset="1" stop-color="#FAC600"/>
</linearGradient>
<linearGradient id="paint7_linear_5197_7490" x1="16.7582" y1="11.8672" x2="17.5917" y2="12.7006" gradientUnits="userSpaceOnUse">
<stop stop-color="#FEF48B"/>
<stop offset="0.165" stop-color="#FDF286"/>
<stop offset="0.335" stop-color="#FDEE7A"/>
<stop offset="0.509" stop-color="#FCE765"/>
<stop offset="0.684" stop-color="#FCDE48"/>
<stop offset="0.859" stop-color="#FBD123"/>
<stop offset="1" stop-color="#FAC600"/>
</linearGradient>
<linearGradient id="paint8_linear_5197_7490" x1="9.51614" y1="19.1092" x2="10.3496" y2="19.9427" gradientUnits="userSpaceOnUse">
<stop stop-color="#FEF48B"/>
<stop offset="0.165" stop-color="#FDF286"/>
<stop offset="0.335" stop-color="#FDEE7A"/>
<stop offset="0.509" stop-color="#FCE765"/>
<stop offset="0.684" stop-color="#FCDE48"/>
<stop offset="0.859" stop-color="#FBD123"/>
<stop offset="1" stop-color="#FAC600"/>
</linearGradient>
<linearGradient id="paint9_linear_5197_7490" x1="9.51614" y1="4.62507" x2="10.3496" y2="5.45855" gradientUnits="userSpaceOnUse">
<stop stop-color="#FEF48B"/>
<stop offset="0.165" stop-color="#FDF286"/>
<stop offset="0.335" stop-color="#FDEE7A"/>
<stop offset="0.509" stop-color="#FCE765"/>
<stop offset="0.684" stop-color="#FCDE48"/>
<stop offset="0.859" stop-color="#FBD123"/>
<stop offset="1" stop-color="#FAC600"/>
</linearGradient>
<linearGradient id="paint10_linear_5197_7490" x1="3.24422" y1="15.4881" x2="4.07789" y2="16.3217" gradientUnits="userSpaceOnUse">
<stop stop-color="#FEF48B"/>
<stop offset="0.165" stop-color="#FDF286"/>
<stop offset="0.335" stop-color="#FDEE7A"/>
<stop offset="0.509" stop-color="#FCE765"/>
<stop offset="0.684" stop-color="#FCDE48"/>
<stop offset="0.859" stop-color="#FBD123"/>
<stop offset="1" stop-color="#FAC600"/>
</linearGradient>
<linearGradient id="paint11_linear_5197_7490" x1="15.7879" y1="8.24602" x2="16.6215" y2="9.07969" gradientUnits="userSpaceOnUse">
<stop stop-color="#FEF48B"/>
<stop offset="0.165" stop-color="#FDF286"/>
<stop offset="0.335" stop-color="#FDEE7A"/>
<stop offset="0.509" stop-color="#FCE765"/>
<stop offset="0.684" stop-color="#FCDE48"/>
<stop offset="0.859" stop-color="#FBD123"/>
<stop offset="1" stop-color="#FAC600"/>
</linearGradient>
<linearGradient id="paint12_linear_5197_7490" x1="13.1371" y1="18.1388" x2="13.9707" y2="18.9725" gradientUnits="userSpaceOnUse">
<stop stop-color="#FEF48B"/>
<stop offset="0.165" stop-color="#FDF286"/>
<stop offset="0.335" stop-color="#FDEE7A"/>
<stop offset="0.509" stop-color="#FCE765"/>
<stop offset="0.684" stop-color="#FCDE48"/>
<stop offset="0.859" stop-color="#FBD123"/>
<stop offset="1" stop-color="#FAC600"/>
</linearGradient>
<linearGradient id="paint13_linear_5197_7490" x1="5.895" y1="5.59523" x2="6.72867" y2="6.4289" gradientUnits="userSpaceOnUse">
<stop stop-color="#FEF48B"/>
<stop offset="0.165" stop-color="#FDF286"/>
<stop offset="0.335" stop-color="#FDEE7A"/>
<stop offset="0.509" stop-color="#FCE765"/>
<stop offset="0.684" stop-color="#FCDE48"/>
<stop offset="0.859" stop-color="#FBD123"/>
<stop offset="1" stop-color="#FAC600"/>
</linearGradient>
<linearGradient id="paint14_linear_5197_7490" x1="15.7879" y1="15.4881" x2="16.6215" y2="16.3218" gradientUnits="userSpaceOnUse">
<stop stop-color="#FEF48B"/>
<stop offset="0.165" stop-color="#FDF286"/>
<stop offset="0.335" stop-color="#FDEE7A"/>
<stop offset="0.509" stop-color="#FCE765"/>
<stop offset="0.684" stop-color="#FCDE48"/>
<stop offset="0.859" stop-color="#FBD123"/>
<stop offset="1" stop-color="#FAC600"/>
</linearGradient>
<linearGradient id="paint15_linear_5197_7490" x1="3.24421" y1="8.24609" x2="4.07788" y2="9.07976" gradientUnits="userSpaceOnUse">
<stop stop-color="#FEF48B"/>
<stop offset="0.165" stop-color="#FDF286"/>
<stop offset="0.335" stop-color="#FDEE7A"/>
<stop offset="0.509" stop-color="#FCE765"/>
<stop offset="0.684" stop-color="#FCDE48"/>
<stop offset="0.859" stop-color="#FBD123"/>
<stop offset="1" stop-color="#FAC600"/>
</linearGradient>
<linearGradient id="paint16_linear_5197_7490" x1="5.895" y1="18.1389" x2="6.72867" y2="18.9726" gradientUnits="userSpaceOnUse">
<stop stop-color="#FEF48B"/>
<stop offset="0.165" stop-color="#FDF286"/>
<stop offset="0.335" stop-color="#FDEE7A"/>
<stop offset="0.509" stop-color="#FCE765"/>
<stop offset="0.684" stop-color="#FCDE48"/>
<stop offset="0.859" stop-color="#FBD123"/>
<stop offset="1" stop-color="#FAC600"/>
</linearGradient>
<linearGradient id="paint17_linear_5197_7490" x1="13.1371" y1="5.59523" x2="13.9708" y2="6.42891" gradientUnits="userSpaceOnUse">
<stop stop-color="#FEF48B"/>
<stop offset="0.165" stop-color="#FDF286"/>
<stop offset="0.335" stop-color="#FDEE7A"/>
<stop offset="0.509" stop-color="#FCE765"/>
<stop offset="0.684" stop-color="#FCDE48"/>
<stop offset="0.859" stop-color="#FBD123"/>
<stop offset="1" stop-color="#FAC600"/>
</linearGradient>
<linearGradient id="paint18_linear_5197_7490" x1="6.42184" y1="8.77288" x2="13.6519" y2="16.0029" gradientUnits="userSpaceOnUse">
<stop stop-color="#FEF48B"/>
<stop offset="0.165" stop-color="#FDF286"/>
<stop offset="0.335" stop-color="#FDEE7A"/>
<stop offset="0.509" stop-color="#FCE765"/>
<stop offset="0.684" stop-color="#FCDE48"/>
<stop offset="0.859" stop-color="#FBD123"/>
<stop offset="1" stop-color="#FAC600"/>
</linearGradient>
<linearGradient id="paint19_linear_5197_7490" x1="9.91932" y1="12.4803" x2="9.91932" y2="18.1836" gradientUnits="userSpaceOnUse">
<stop stop-color="#FE9738" stop-opacity="0"/>
<stop offset="0.121" stop-color="#FE9738" stop-opacity="0.016"/>
<stop offset="0.246" stop-color="#FE9738" stop-opacity="0.065"/>
<stop offset="0.373" stop-color="#FE9738" stop-opacity="0.147"/>
<stop offset="0.502" stop-color="#FE9738" stop-opacity="0.262"/>
<stop offset="0.632" stop-color="#FE9738" stop-opacity="0.41"/>
<stop offset="0.762" stop-color="#FE9738" stop-opacity="0.59"/>
<stop offset="0.892" stop-color="#FE9738" stop-opacity="0.8"/>
<stop offset="1" stop-color="#FE9738"/>
</linearGradient>
<linearGradient id="paint20_linear_5197_7490" x1="9.55225" y1="12.1357" x2="15.823" y2="14.226" gradientUnits="userSpaceOnUse">
<stop stop-color="#FE9738" stop-opacity="0"/>
<stop offset="0.121" stop-color="#FE9738" stop-opacity="0.016"/>
<stop offset="0.246" stop-color="#FE9738" stop-opacity="0.065"/>
<stop offset="0.373" stop-color="#FE9738" stop-opacity="0.147"/>
<stop offset="0.502" stop-color="#FE9738" stop-opacity="0.262"/>
<stop offset="0.632" stop-color="#FE9738" stop-opacity="0.41"/>
<stop offset="0.762" stop-color="#FE9738" stop-opacity="0.59"/>
<stop offset="0.892" stop-color="#FE9738" stop-opacity="0.8"/>
<stop offset="1" stop-color="#FE9738"/>
</linearGradient>
<linearGradient id="paint21_linear_5197_7490" x1="21.5453" y1="17.277" x2="18.8498" y2="18.8141" gradientUnits="userSpaceOnUse">
<stop stop-color="#8AC9FE" stop-opacity="0"/>
<stop offset="0.129" stop-color="#89C8FD" stop-opacity="0.019"/>
<stop offset="0.263" stop-color="#88C6FB" stop-opacity="0.075"/>
<stop offset="0.399" stop-color="#87C4F8" stop-opacity="0.168"/>
<stop offset="0.536" stop-color="#85C0F4" stop-opacity="0.298"/>
<stop offset="0.675" stop-color="#83BBEF" stop-opacity="0.466"/>
<stop offset="0.815" stop-color="#7FB5E9" stop-opacity="0.672"/>
<stop offset="0.953" stop-color="#7CAEE1" stop-opacity="0.911"/>
<stop offset="1" stop-color="#7BACDF"/>
</linearGradient>
<linearGradient id="paint22_linear_5197_7490" x1="9.64916" y1="14.897" x2="12.2825" y2="24.6026" gradientUnits="userSpaceOnUse">
<stop stop-color="#F5FBFF"/>
<stop offset="0.241" stop-color="#F0F8FE"/>
<stop offset="0.492" stop-color="#E4F2FE"/>
<stop offset="0.746" stop-color="#CFE8FE"/>
<stop offset="1" stop-color="#B3DAFE"/>
</linearGradient>
<linearGradient id="paint23_linear_5197_7490" x1="10.7647" y1="18.5173" x2="9.49494" y2="12.4022" gradientUnits="userSpaceOnUse">
<stop stop-color="#FEF48B" stop-opacity="0"/>
<stop offset="0.12" stop-color="#FEF48B" stop-opacity="0.016"/>
<stop offset="0.245" stop-color="#FEF48E" stop-opacity="0.065"/>
<stop offset="0.372" stop-color="#FEF493" stop-opacity="0.147"/>
<stop offset="0.501" stop-color="#FEF49A" stop-opacity="0.261"/>
<stop offset="0.63" stop-color="#FEF4A3" stop-opacity="0.408"/>
<stop offset="0.761" stop-color="#FEF4AD" stop-opacity="0.588"/>
<stop offset="0.89" stop-color="#FEF4BA" stop-opacity="0.797"/>
<stop offset="1" stop-color="#FFF5C6"/>
</linearGradient>
<linearGradient id="paint24_linear_5197_7490" x1="11.204" y1="21.8695" x2="11.204" y2="23.826" gradientUnits="userSpaceOnUse">
<stop stop-color="#8AC9FE" stop-opacity="0"/>
<stop offset="0.129" stop-color="#89C8FD" stop-opacity="0.019"/>
<stop offset="0.263" stop-color="#88C6FB" stop-opacity="0.075"/>
<stop offset="0.399" stop-color="#87C4F8" stop-opacity="0.168"/>
<stop offset="0.536" stop-color="#85C0F4" stop-opacity="0.298"/>
<stop offset="0.675" stop-color="#83BBEF" stop-opacity="0.466"/>
<stop offset="0.815" stop-color="#7FB5E9" stop-opacity="0.672"/>
<stop offset="0.953" stop-color="#7CAEE1" stop-opacity="0.911"/>
<stop offset="1" stop-color="#7BACDF"/>
</linearGradient>
<linearGradient id="paint25_linear_5197_7490" x1="18.0024" y1="20.4889" x2="20.8218" y2="20.4889" gradientUnits="userSpaceOnUse">
<stop stop-color="#8AC9FE" stop-opacity="0"/>
<stop offset="0.129" stop-color="#89C8FD" stop-opacity="0.019"/>
<stop offset="0.263" stop-color="#88C6FB" stop-opacity="0.075"/>
<stop offset="0.399" stop-color="#87C4F8" stop-opacity="0.168"/>
<stop offset="0.536" stop-color="#85C0F4" stop-opacity="0.298"/>
<stop offset="0.675" stop-color="#83BBEF" stop-opacity="0.466"/>
<stop offset="0.815" stop-color="#7FB5E9" stop-opacity="0.672"/>
<stop offset="0.953" stop-color="#7CAEE1" stop-opacity="0.911"/>
<stop offset="1" stop-color="#7BACDF"/>
</linearGradient>
<linearGradient id="paint26_linear_5197_7490" x1="16.903" y1="16.3161" x2="19.1977" y2="16.3537" gradientUnits="userSpaceOnUse">
<stop stop-color="#8AC9FE" stop-opacity="0"/>
<stop offset="0.129" stop-color="#89C8FD" stop-opacity="0.019"/>
<stop offset="0.263" stop-color="#88C6FB" stop-opacity="0.075"/>
<stop offset="0.399" stop-color="#87C4F8" stop-opacity="0.168"/>
<stop offset="0.536" stop-color="#85C0F4" stop-opacity="0.298"/>
<stop offset="0.675" stop-color="#83BBEF" stop-opacity="0.466"/>
<stop offset="0.815" stop-color="#7FB5E9" stop-opacity="0.672"/>
<stop offset="0.953" stop-color="#7CAEE1" stop-opacity="0.911"/>
<stop offset="1" stop-color="#7BACDF"/>
</linearGradient>
<linearGradient id="paint27_linear_5197_7490" x1="14.2591" y1="15.1711" x2="15.8391" y2="13.8169" gradientUnits="userSpaceOnUse">
<stop stop-color="#8AC9FE" stop-opacity="0"/>
<stop offset="0.129" stop-color="#89C8FD" stop-opacity="0.019"/>
<stop offset="0.263" stop-color="#88C6FB" stop-opacity="0.075"/>
<stop offset="0.399" stop-color="#87C4F8" stop-opacity="0.168"/>
<stop offset="0.536" stop-color="#85C0F4" stop-opacity="0.298"/>
<stop offset="0.675" stop-color="#83BBEF" stop-opacity="0.466"/>
<stop offset="0.815" stop-color="#7FB5E9" stop-opacity="0.672"/>
<stop offset="0.953" stop-color="#7CAEE1" stop-opacity="0.911"/>
<stop offset="1" stop-color="#7BACDF"/>
</linearGradient>
<linearGradient id="paint28_linear_5197_7490" x1="6.90289" y1="18.2988" x2="4.75864" y2="17.095" gradientUnits="userSpaceOnUse">
<stop stop-color="#8AC9FE" stop-opacity="0"/>
<stop offset="0.129" stop-color="#89C8FD" stop-opacity="0.019"/>
<stop offset="0.263" stop-color="#88C6FB" stop-opacity="0.075"/>
<stop offset="0.399" stop-color="#87C4F8" stop-opacity="0.168"/>
<stop offset="0.536" stop-color="#85C0F4" stop-opacity="0.298"/>
<stop offset="0.675" stop-color="#83BBEF" stop-opacity="0.466"/>
<stop offset="0.815" stop-color="#7FB5E9" stop-opacity="0.672"/>
<stop offset="0.953" stop-color="#7CAEE1" stop-opacity="0.911"/>
<stop offset="1" stop-color="#7BACDF"/>
</linearGradient>
<linearGradient id="paint29_linear_5197_7490" x1="10.3769" y1="18.6131" x2="12.4334" y2="17.0749" gradientUnits="userSpaceOnUse">
<stop stop-color="white" stop-opacity="0"/>
<stop offset="0.12" stop-color="white" stop-opacity="0.016"/>
<stop offset="0.245" stop-color="white" stop-opacity="0.065"/>
<stop offset="0.372" stop-color="white" stop-opacity="0.147"/>
<stop offset="0.501" stop-color="white" stop-opacity="0.261"/>
<stop offset="0.63" stop-color="white" stop-opacity="0.408"/>
<stop offset="0.761" stop-color="white" stop-opacity="0.588"/>
<stop offset="0.89" stop-color="white" stop-opacity="0.797"/>
<stop offset="1" stop-color="white"/>
</linearGradient>
</defs>
</svg>
