<svg width="100" height="100" viewBox="0 0 100 100" fill="none" xmlns="http://www.w3.org/2000/svg">
<path d="M40.1553 79.4688V88.875C40.1553 90.7813 41.7178 92.3281 43.6084 92.3281C45.5146 92.3281 47.0615 90.7813 47.0615 88.875V80.7031C48.0303 80.7813 49.0146 80.8281 49.999 80.8281C52.3896 80.8281 54.7803 80.5781 57.1396 80.1094V89.4844C57.1396 91.0469 58.4209 92.3281 59.9834 92.3281C61.5615 92.3281 62.8271 91.0469 62.8271 89.4844V78.4844C77.0615 73.1562 86.5771 59.4687 86.5771 44.25C86.5771 24.0781 70.1709 7.67188 49.999 7.67188C29.8271 7.67188 13.4209 24.0781 13.4209 44.25C13.4209 60.6875 24.3896 75.0781 40.1553 79.4688ZM46.8271 56.75H46.2803C45.8584 56.75 45.499 57.0937 45.499 57.5312V88.875C45.499 89.9219 44.6553 90.7656 43.6084 90.7656C42.5771 90.7656 41.7178 89.9219 41.7178 88.875V57.5312C41.7178 57.0937 41.374 56.75 40.9365 56.75H40.3896C40.2178 56.75 40.0771 56.5938 40.0771 56.4219V55.2188C40.0771 54.8281 39.7803 54.5 39.3896 54.4531C37.0771 54.1406 35.3271 52.1562 35.3271 49.8281V36C35.3271 35.4531 35.6709 34.9687 36.1396 34.8594C36.2334 34.8281 36.3428 34.8125 36.4365 34.8125C36.6865 34.8125 36.9209 34.9063 37.124 35.0469C37.3896 35.2656 37.5459 35.5781 37.5459 35.9219V49.8281C37.5459 51.1719 38.6396 52.2812 39.999 52.2812H41.7334C42.1553 52.2812 42.5146 51.9219 42.5146 51.5V36C42.5146 35.4531 42.8428 34.9687 43.3115 34.8594C43.6709 34.7656 44.0146 34.8438 44.2959 35.0469C44.5615 35.2656 44.7178 35.5781 44.7178 35.9219V51.5C44.7178 51.9219 45.0615 52.2812 45.499 52.2812H47.2334C48.5771 52.2812 49.6865 51.1719 49.6865 49.8281V35.9219C49.6865 35.3125 50.1865 34.8125 50.7959 34.8125C51.3896 34.8125 51.8896 35.3125 51.8896 35.9219V49.8281C51.8896 52.1562 50.1396 54.1406 47.8271 54.4531C47.4521 54.5 47.1553 54.8281 47.1553 55.2188V56.4219C47.1553 56.5938 47.0146 56.75 46.8271 56.75ZM57.1396 78.5C53.8115 79.2031 50.3584 79.3906 47.0615 79.125V71.1406C48.0459 71.25 49.0303 71.3125 49.999 71.3125C52.4365 71.3125 54.8428 70.9688 57.1396 70.3438V78.5ZM62.0459 69.6094C61.624 69.6094 61.2646 69.9531 61.2646 70.3906V89.4844C61.2646 90.1875 60.7021 90.7656 59.9834 90.7656C59.2803 90.7656 58.7021 90.1875 58.7021 89.4844V34.8594C62.0615 35.25 64.6709 38.1094 64.6709 41.5469V69.0469C64.6709 69.3594 64.4209 69.6094 64.124 69.6094H62.0459ZM49.999 9.23438C69.3115 9.23438 85.0146 24.9375 85.0146 44.25C85.0146 58.625 76.1396 71.5469 62.8271 76.7969V71.1719H64.124C65.2803 71.1719 66.2334 70.2187 66.2334 69.0469V65.8906C73.0146 60.7812 77.0615 52.7344 77.0615 44.25C77.0615 29.3281 64.9209 17.1875 49.999 17.1875C35.0771 17.1875 22.9365 29.3281 22.9365 44.25C22.9365 55.375 29.8428 65.4219 40.1553 69.4531V77.8437C25.2959 73.5 14.9834 59.8437 14.9834 44.25C14.9834 24.9375 30.6865 9.23438 49.999 9.23438Z" fill="#4D546B"/>
</svg>
