<svg width="28" height="28" viewBox="0 0 28 28" fill="none" xmlns="http://www.w3.org/2000/svg">
<g clip-path="url(#clip0_5197_7421)">
<path d="M23.6875 8.02516C23.6901 7.93363 23.6906 7.84158 23.689 7.74902C23.6335 4.6029 21.0627 2.04304 17.9165 2.00055C14.6461 1.95636 11.981 4.59419 11.981 7.85448C11.981 7.90116 11.9816 7.94775 11.9827 7.99415C12.0164 9.43255 11.6546 10.8523 10.8953 12.0745C10.1331 13.3013 9.6871 14.7451 9.67138 16.292C9.62569 20.7922 13.2765 24.5093 17.7767 24.541C22.3128 24.5728 26 20.9053 26 16.3766C26 14.8245 25.5669 13.3737 24.8149 12.1382C24.0606 10.8989 23.6459 9.47537 23.6875 8.02516Z" fill="url(#paint0_linear_5197_7421)"/>
<path d="M23.6875 8.02516C23.6901 7.93363 23.6906 7.84158 23.689 7.74901C23.6335 4.6029 21.0627 2.04304 17.9165 2.00054C17.1733 1.99052 16.4617 2.11932 15.8053 2.36205V24.2837C16.4366 24.4468 17.0969 24.5362 17.7768 24.541C22.3128 24.5728 26 20.9053 26 16.3766C26 14.8245 25.5669 13.3737 24.8149 12.1382C24.0606 10.8989 23.6459 9.47537 23.6875 8.02516Z" fill="url(#paint1_linear_5197_7421)"/>
<path d="M9.67138 16.2921C9.62569 20.7922 13.2765 24.5094 17.7767 24.541C22.3128 24.5729 26 20.9054 26 16.3767C26 15.5093 25.8646 14.6736 25.614 13.8894H10.0571C9.81463 14.6481 9.6799 15.455 9.67138 16.2921Z" fill="url(#paint2_linear_5197_7421)"/>
<path d="M22.6609 8.94542C22.663 8.86993 22.6634 8.79403 22.6621 8.71775C22.6164 6.12358 20.4966 4.0128 17.9023 3.97775C15.2056 3.94132 13.0081 6.11638 13.0081 8.80471C13.0081 8.84321 13.0086 8.8816 13.0095 8.91991C13.0373 10.106 12.7389 11.2767 12.1129 12.2844C11.4843 13.2961 11.1166 14.4865 11.1037 15.7621C11.066 19.4728 14.0763 22.5378 17.7871 22.5639C21.5274 22.5902 24.5677 19.5661 24.5677 15.8319C24.5677 14.5521 24.2106 13.3557 23.5906 12.337C22.9685 11.3151 22.6266 10.1412 22.6609 8.94542Z" fill="url(#paint3_linear_5197_7421)"/>
<path d="M14.6161 19.4434L19.5359 24.3632C22.7648 23.6791 25.2891 21.0871 25.8724 17.8221L21.0549 13.0046L14.6161 19.4434Z" fill="url(#paint4_linear_5197_7421)"/>
<path d="M24.2822 13.8894H11.3883C11.2097 14.4832 11.1103 15.1115 11.1037 15.762C11.066 19.4727 14.0763 22.5377 17.7871 22.5639C21.5274 22.5902 24.5677 19.566 24.5677 15.8319C24.5677 15.1563 24.4673 14.5045 24.2822 13.8894Z" fill="url(#paint5_linear_5197_7421)"/>
<path d="M17.8355 20.7769C20.35 20.7769 22.3884 18.7385 22.3884 16.224C22.3884 13.7094 20.35 11.671 17.8355 11.671C15.321 11.671 13.2825 13.7094 13.2825 16.224C13.2825 18.7385 15.321 20.7769 17.8355 20.7769Z" fill="url(#paint6_linear_5197_7421)"/>
<path d="M13.2826 16.2238C13.2826 18.7383 15.321 20.7768 17.8355 20.7768C20.35 20.7768 22.3885 18.7383 22.3885 16.2238C22.3885 15.6793 22.2925 15.1571 22.1172 14.6731H13.5539C13.3785 15.1572 13.2826 15.6793 13.2826 16.2238Z" fill="url(#paint7_linear_5197_7421)"/>
<path d="M14.6161 19.4433C16.3941 21.2213 19.2768 21.2213 21.0548 19.4433C22.8329 17.6652 22.8329 14.7825 21.0548 13.0044C20.6698 12.6194 20.2328 12.318 19.7665 12.0997L13.7114 18.1549C13.9297 18.6212 14.231 19.0582 14.6161 19.4433Z" fill="url(#paint8_linear_5197_7421)"/>
<path d="M15.9984 24.331C16.5708 24.4639 17.1659 24.5366 17.7768 24.5409C20.4432 24.5596 22.8158 23.2998 24.319 21.3385L21.6549 18.6744L15.9984 24.331Z" fill="url(#paint9_linear_5197_7421)"/>
<path d="M21.1771 18.3684C21.5791 18.3684 21.8785 18.8119 21.787 19.2759C21.0232 23.1504 18.0575 26.0418 14.5677 25.9995C13.1782 25.983 11.8816 25.5082 10.7795 24.6964C9.68176 23.8879 8.40618 23.503 7.11432 23.5388C7.07263 23.5402 7.03093 23.5406 6.98886 23.5406C4.70928 23.5406 2.76834 21.8213 2.03917 19.4172C1.8842 18.9062 2.20872 18.3684 2.66684 18.3684H9.753C10.1803 18.3684 10.5599 18.6793 10.7222 19.1477C11.3335 20.9124 12.7978 22.1548 14.5066 22.1548C16.2154 22.1548 17.6796 20.9124 18.2909 19.1477C18.4532 18.6793 18.8329 18.3684 19.2601 18.3684H21.1771Z" fill="url(#paint10_linear_5197_7421)"/>
<path d="M21.1771 18.3684C21.5791 18.3684 21.8785 18.8119 21.787 19.2759C21.0232 23.1504 18.0575 26.0418 14.5677 25.9995C13.1782 25.983 11.8816 25.5082 10.7795 24.6964C9.68176 23.8879 8.40618 23.503 7.11432 23.5388C7.07263 23.5402 7.03093 23.5406 6.98886 23.5406C4.70928 23.5406 2.76834 21.8213 2.03917 19.4172C1.8842 18.9062 2.20872 18.3684 2.66684 18.3684H9.753C10.1803 18.3684 10.5599 18.6793 10.7222 19.1477C11.3335 20.9124 12.7978 22.1548 14.5066 22.1548C16.2154 22.1548 17.6796 20.9124 18.2909 19.1477C18.4532 18.6793 18.8329 18.3684 19.2601 18.3684H21.1771Z" fill="url(#paint11_linear_5197_7421)"/>
<path d="M21.1771 18.3684C21.5791 18.3684 21.8785 18.8119 21.787 19.2759C21.0232 23.1504 18.0575 26.0418 14.5677 25.9995C13.1782 25.983 11.8816 25.5082 10.7795 24.6964C9.68176 23.8879 8.40618 23.503 7.11432 23.5388C7.07263 23.5402 7.03093 23.5406 6.98886 23.5406C4.70928 23.5406 2.76834 21.8213 2.03917 19.4172C1.8842 18.9062 2.20872 18.3684 2.66684 18.3684H9.753C10.1803 18.3684 10.5599 18.6793 10.7222 19.1477C11.3335 20.9124 12.7978 22.1548 14.5066 22.1548C16.2154 22.1548 17.6796 20.9124 18.2909 19.1477C18.4532 18.6793 18.8329 18.3684 19.2601 18.3684H21.1771Z" fill="url(#paint12_linear_5197_7421)"/>
<path d="M20.1349 18.3684C19.6958 21.8413 17.1355 24.5115 14.0917 24.4748C12.9459 24.4611 11.8764 24.0696 10.968 23.4004C10.0625 22.7336 9.01117 22.4159 7.94561 22.4456C7.91145 22.4465 7.87696 22.447 7.84237 22.447C5.75451 22.447 4.01126 20.6978 3.59917 18.3684H2.66684C2.20872 18.3684 1.8842 18.9062 2.03917 19.4172C2.76834 21.8213 4.70928 23.5406 6.98886 23.5406C7.03093 23.5406 7.07263 23.5402 7.11432 23.5388C8.40618 23.503 9.68176 23.8879 10.7795 24.6964C11.8816 25.5082 13.1782 25.983 14.5677 25.9995C18.0575 26.0419 21.0232 23.1504 21.787 19.2759C21.8785 18.8119 21.5791 18.3684 21.1771 18.3684H20.1349Z" fill="url(#paint13_linear_5197_7421)"/>
<path d="M19.6557 20.2743C18.6901 22.7704 16.5486 24.5045 14.0917 24.4749C12.9459 24.4613 11.8764 24.0697 10.968 23.4006C10.0625 22.7337 9.01119 22.4161 7.94564 22.4457C7.91147 22.4467 7.87698 22.4471 7.84239 22.4471C6.38023 22.4471 5.0878 21.5886 4.30249 20.2743H2.3631C3.25284 22.2196 4.99067 23.5408 6.98884 23.5408C7.03091 23.5408 7.0726 23.5403 7.1143 23.5389C8.40616 23.5031 9.68173 23.8881 10.7795 24.6966C11.8815 25.5083 13.1782 25.9831 14.5677 25.9996C17.7504 26.0383 20.497 23.6364 21.5351 20.2743H19.6557Z" fill="url(#paint14_linear_5197_7421)"/>
<path d="M21.1771 18.3684H19.2601C18.8329 18.3684 18.4532 18.6793 18.291 19.1477C17.6796 20.9124 16.2154 22.1548 14.5066 22.1548C14.1171 22.1548 13.7405 22.0896 13.3837 21.969V25.8719C13.7689 25.951 14.1644 25.9947 14.5677 25.9994C18.0575 26.0418 21.0232 23.1504 21.787 19.2759C21.8784 18.812 21.5791 18.3684 21.1771 18.3684Z" fill="url(#paint15_linear_5197_7421)"/>
</g>
<defs>
<linearGradient id="paint0_linear_5197_7421" x1="13.487" y1="9.39819" x2="27.6972" y2="23.6084" gradientUnits="userSpaceOnUse">
<stop stop-color="#78A04D"/>
<stop offset="1" stop-color="#334C0F"/>
</linearGradient>
<linearGradient id="paint1_linear_5197_7421" x1="22.9541" y1="12.7327" x2="26.07" y2="12.4012" gradientUnits="userSpaceOnUse">
<stop stop-color="#334C0F" stop-opacity="0"/>
<stop offset="0.252" stop-color="#354B16" stop-opacity="0.252"/>
<stop offset="0.611" stop-color="#3B4828" stop-opacity="0.611"/>
<stop offset="1" stop-color="#444444"/>
</linearGradient>
<linearGradient id="paint2_linear_5197_7421" x1="17.8355" y1="20.9169" x2="17.8355" y2="24.1903" gradientUnits="userSpaceOnUse">
<stop stop-color="#334C0F" stop-opacity="0"/>
<stop offset="0.252" stop-color="#354B16" stop-opacity="0.252"/>
<stop offset="0.611" stop-color="#3B4828" stop-opacity="0.611"/>
<stop offset="1" stop-color="#444444"/>
</linearGradient>
<linearGradient id="paint3_linear_5197_7421" x1="15.4514" y1="11.2791" x2="22.7048" y2="18.5325" gradientUnits="userSpaceOnUse">
<stop stop-color="#FEF0AE"/>
<stop offset="1" stop-color="#FEE45A"/>
</linearGradient>
<linearGradient id="paint4_linear_5197_7421" x1="24.5134" y1="22.9019" x2="16.5331" y2="14.9216" gradientUnits="userSpaceOnUse">
<stop stop-color="#FEA613" stop-opacity="0"/>
<stop offset="0.241" stop-color="#FDA315" stop-opacity="0.241"/>
<stop offset="0.435" stop-color="#FB991A" stop-opacity="0.435"/>
<stop offset="0.613" stop-color="#F88822" stop-opacity="0.613"/>
<stop offset="0.78" stop-color="#F2702E" stop-opacity="0.78"/>
<stop offset="0.94" stop-color="#EC523D" stop-opacity="0.94"/>
<stop offset="1" stop-color="#E94444"/>
</linearGradient>
<linearGradient id="paint5_linear_5197_7421" x1="17.8355" y1="16.6297" x2="17.8355" y2="23.7413" gradientUnits="userSpaceOnUse">
<stop stop-color="#026841" stop-opacity="0"/>
<stop offset="0.324" stop-color="#046842" stop-opacity="0.324"/>
<stop offset="0.551" stop-color="#0E6546" stop-opacity="0.551"/>
<stop offset="0.748" stop-color="#1D614C" stop-opacity="0.748"/>
<stop offset="0.926" stop-color="#335C54" stop-opacity="0.926"/>
<stop offset="1" stop-color="#3E5959"/>
</linearGradient>
<linearGradient id="paint6_linear_5197_7421" x1="16.182" y1="14.5705" x2="18.7235" y2="17.112" gradientUnits="userSpaceOnUse">
<stop stop-color="#F89580"/>
<stop offset="1" stop-color="#C4573A"/>
</linearGradient>
<linearGradient id="paint7_linear_5197_7421" x1="17.8355" y1="16.6295" x2="17.8355" y2="20.1214" gradientUnits="userSpaceOnUse">
<stop stop-color="#C4573A" stop-opacity="0"/>
<stop offset="0.257" stop-color="#C05539" stop-opacity="0.257"/>
<stop offset="0.517" stop-color="#B45137" stop-opacity="0.517"/>
<stop offset="0.776" stop-color="#A04833" stop-opacity="0.776"/>
<stop offset="1" stop-color="#883F2E"/>
</linearGradient>
<linearGradient id="paint8_linear_5197_7421" x1="17.9499" y1="16.3383" x2="20.6906" y2="19.079" gradientUnits="userSpaceOnUse">
<stop stop-color="#C4573A" stop-opacity="0"/>
<stop offset="0.257" stop-color="#C05539" stop-opacity="0.257"/>
<stop offset="0.517" stop-color="#B45137" stop-opacity="0.517"/>
<stop offset="0.776" stop-color="#A04833" stop-opacity="0.776"/>
<stop offset="1" stop-color="#883F2E"/>
</linearGradient>
<linearGradient id="paint9_linear_5197_7421" x1="23.7931" y1="22.4879" x2="20.7814" y2="21.8918" gradientUnits="userSpaceOnUse">
<stop stop-color="#334C0F" stop-opacity="0"/>
<stop offset="0.252" stop-color="#354B16" stop-opacity="0.252"/>
<stop offset="0.611" stop-color="#3B4828" stop-opacity="0.611"/>
<stop offset="1" stop-color="#444444"/>
</linearGradient>
<linearGradient id="paint10_linear_5197_7421" x1="11.457" y1="17.528" x2="13.7276" y2="25.7257" gradientUnits="userSpaceOnUse">
<stop stop-color="#FEF0AE"/>
<stop offset="1" stop-color="#FEE45A"/>
</linearGradient>
<linearGradient id="paint11_linear_5197_7421" x1="11.9018" y1="19.8507" x2="11.9018" y2="25.4273" gradientUnits="userSpaceOnUse">
<stop stop-color="#026841" stop-opacity="0"/>
<stop offset="0.324" stop-color="#046842" stop-opacity="0.324"/>
<stop offset="0.551" stop-color="#0E6546" stop-opacity="0.551"/>
<stop offset="0.748" stop-color="#1D614C" stop-opacity="0.748"/>
<stop offset="0.926" stop-color="#335C54" stop-opacity="0.926"/>
<stop offset="1" stop-color="#3E5959"/>
</linearGradient>
<linearGradient id="paint12_linear_5197_7421" x1="14.4589" y1="22.4997" x2="17.0739" y2="25.5506" gradientUnits="userSpaceOnUse">
<stop stop-color="#026841" stop-opacity="0"/>
<stop offset="0.324" stop-color="#046842" stop-opacity="0.324"/>
<stop offset="0.551" stop-color="#0E6546" stop-opacity="0.551"/>
<stop offset="0.748" stop-color="#1D614C" stop-opacity="0.748"/>
<stop offset="0.926" stop-color="#335C54" stop-opacity="0.926"/>
<stop offset="1" stop-color="#3E5959"/>
</linearGradient>
<linearGradient id="paint13_linear_5197_7421" x1="12.0145" y1="19.5828" x2="14.2067" y2="28.3218" gradientUnits="userSpaceOnUse">
<stop stop-color="#78A04D"/>
<stop offset="1" stop-color="#334C0F"/>
</linearGradient>
<linearGradient id="paint14_linear_5197_7421" x1="11.9491" y1="23.2389" x2="11.9491" y2="25.922" gradientUnits="userSpaceOnUse">
<stop stop-color="#334C0F" stop-opacity="0"/>
<stop offset="0.252" stop-color="#354B16" stop-opacity="0.252"/>
<stop offset="0.611" stop-color="#3B4828" stop-opacity="0.611"/>
<stop offset="1" stop-color="#444444"/>
</linearGradient>
<linearGradient id="paint15_linear_5197_7421" x1="17.1048" y1="22.0331" x2="21.2299" y2="23.6242" gradientUnits="userSpaceOnUse">
<stop stop-color="#334C0F" stop-opacity="0"/>
<stop offset="0.252" stop-color="#354B16" stop-opacity="0.252"/>
<stop offset="0.611" stop-color="#3B4828" stop-opacity="0.611"/>
<stop offset="1" stop-color="#444444"/>
</linearGradient>
<clipPath id="clip0_5197_7421">
<rect width="24" height="24" fill="white" transform="translate(2 2)"/>
</clipPath>
</defs>
</svg>
