<svg width="63" height="49" viewBox="0 0 63 49" fill="none" xmlns="http://www.w3.org/2000/svg">
<g clip-path="url(#clip0_6511_35137)">
<mask id="mask0_6511_35137" style="mask-type:alpha" maskUnits="userSpaceOnUse" x="14" y="1" width="36" height="43">
<path d="M14.2812 34.5928C14.2812 41.5005 21.6166 45.9389 27.7357 42.7337C30.4065 41.3347 33.5935 41.3347 36.2643 42.7337C42.3834 45.9389 49.7188 41.5005 49.7188 34.5928V14.3438C49.7188 7.3539 44.0524 1.6875 37.0625 1.6875H26.9375C19.9476 1.6875 14.2812 7.3539 14.2812 14.3438V34.5928Z" fill="#D9D9D9"/>
</mask>
<g mask="url(#mask0_6511_35137)">
<path d="M21.4007 43.8082C19.2413 41.6227 17.0819 39.3498 15.7077 36.6398C14.3336 33.755 13.9409 30.433 14.628 27.2859C15.3151 24.1388 16.8856 21.1666 19.1432 18.6314C18.9469 20.8169 19.8303 23.0898 21.4989 24.7508C20.5173 20.5546 22.0878 16.0088 25.2288 12.6869C28.3697 9.36497 32.6886 7.17949 37.2037 5.69336C34.9461 7.79142 34.6517 11.1134 35.5351 13.9108C36.4185 16.7082 38.2834 19.1559 39.952 21.6911C41.6207 24.2263 43.1912 26.8488 43.2893 29.7337C44.1727 28.2476 45.1543 26.7614 45.7432 25.1005C46.3321 23.4395 46.6266 21.6911 46.1358 20.0301C47.9026 21.9534 48.8841 23.8766 49.3749 26.3243C49.8657 28.7721 49.7675 31.3072 49.4731 33.755C49.0805 36.465 48.2952 39.2624 46.6266 41.5353C44.6635 44.2453 41.5225 46.1685 38.0871 47.2176C32.0015 48.1792 26.014 47.3924 21.4007 43.8082Z" fill="#EF573D"/>
<path d="M28.86 47.0442C36.9087 49.8416 44.8592 41.3619 40.4423 34.8055C40.4423 34.718 40.3441 34.718 40.3441 34.6306C40.7367 38.2148 39.7552 40.8374 37.8902 42.3235C38.8718 40.2255 38.1847 37.7777 37.0068 35.6796C35.829 33.669 34.1603 31.8332 32.8843 29.91C31.6083 27.8993 30.6268 25.6264 31.2157 23.3535C28.86 24.9271 27.1913 27.2874 26.5043 29.8225C25.8172 32.3577 26.2098 35.1551 27.4858 37.5155C26.0135 36.5538 24.9338 34.9803 24.8356 33.3193C23.2651 34.9803 22.2836 37.1658 22.3817 39.3513C22.3817 42.7606 25.4245 45.8203 28.86 47.0442Z" fill="#FBAE2E"/>
</g>
</g>
<path d="M56.3805 26.2369C56.0342 26.5831 55.599 26.8288 55.1241 26.9505C55.0726 26.9622 55.0352 27.009 55.0352 27.0628C55.0352 27.1166 55.0726 27.1634 55.1241 27.1774C55.4212 27.2499 55.7043 27.3763 55.964 27.5494C56.1161 27.65 56.2565 27.767 56.3805 27.891C56.7267 28.2373 56.9747 28.6725 57.0941 29.1474C57.1081 29.1989 57.1549 29.2363 57.2087 29.2363C57.2625 29.2363 57.3093 29.1989 57.321 29.1474C57.5667 28.1788 58.3201 27.4231 59.291 27.1751C59.3425 27.1634 59.3799 27.1166 59.3799 27.0628C59.3799 27.009 59.3425 26.9622 59.291 26.9505C58.8161 26.8288 58.3832 26.5831 58.0346 26.2369C57.9434 26.1456 57.8568 26.045 57.7773 25.9374C57.562 25.6473 57.4099 25.3267 57.321 24.9805C57.3093 24.929 57.2625 24.8916 57.2087 24.8916C57.1549 24.8916 57.1081 24.929 57.0941 24.9805C56.9747 25.4554 56.7291 25.8883 56.3805 26.2369Z" fill="#FBAE2E"/>
<path d="M15.1051 6.68414C14.7588 7.03041 14.3236 7.27607 13.8487 7.39774C13.7972 7.40943 13.7598 7.45623 13.7598 7.51004C13.7598 7.56385 13.7972 7.61065 13.8487 7.62468C14.1458 7.69721 14.4289 7.82356 14.6886 7.99669C14.8407 8.0973 14.9811 8.21428 15.1051 8.33828C15.4513 8.68455 15.6994 9.11973 15.8187 9.59469C15.8327 9.64616 15.8795 9.68359 15.9333 9.68359C15.9871 9.68359 16.0339 9.64616 16.0456 9.59469C16.2913 8.62606 17.0447 7.87035 18.0156 7.62234C18.0671 7.61065 18.1045 7.56385 18.1045 7.51004C18.1045 7.45623 18.0671 7.40943 18.0156 7.39774C17.5407 7.27607 17.1078 7.03041 16.7592 6.68414C16.668 6.59289 16.5814 6.49228 16.5019 6.38466C16.2866 6.09454 16.1345 5.774 16.0456 5.42773C16.0339 5.37626 15.9871 5.33882 15.9333 5.33882C15.8795 5.33882 15.8327 5.37626 15.8187 5.42773C15.6994 5.90269 15.4537 6.33552 15.1051 6.68414Z" fill="#FBAE2E"/>
<path d="M57.5016 10.7041C56.8667 11.3389 56.0689 11.7893 55.1982 12.0124C55.1038 12.0338 55.0352 12.1196 55.0352 12.2183C55.0352 12.3169 55.1038 12.4027 55.1982 12.4285C55.7429 12.5614 56.2619 12.7931 56.738 13.1105C57.0169 13.2949 57.2742 13.5094 57.5016 13.7367C58.1364 14.3716 58.5911 15.1694 58.8098 16.0401C58.8356 16.1345 58.9214 16.2031 59.02 16.2031C59.1187 16.2031 59.2045 16.1345 59.2259 16.0401C59.6763 14.2643 61.0575 12.8788 62.8376 12.4242C62.9319 12.4027 63.0006 12.3169 63.0006 12.2183C63.0006 12.1196 62.9319 12.0338 62.8376 12.0124C61.9668 11.7893 61.1733 11.3389 60.5342 10.7041C60.3669 10.5368 60.2082 10.3524 60.0623 10.1551C59.6677 9.62319 59.3889 9.03554 59.2259 8.40071C59.2045 8.30635 59.1187 8.23772 59.02 8.23772C58.9214 8.23772 58.8356 8.30635 58.8098 8.40071C58.5911 9.27146 58.1407 10.065 57.5016 10.7041Z" fill="#EF573D"/>
<path d="M2.4664 30.2549C1.83157 30.8897 1.03375 31.3401 0.162998 31.5632C0.0686308 31.5846 0 31.6704 0 31.7691C0 31.8677 0.0686308 31.9535 0.162998 31.9792C0.707751 32.1122 1.22677 32.3438 1.70289 32.6613C1.9817 32.8457 2.23907 33.0602 2.4664 33.2875C3.10123 33.9223 3.55591 34.7202 3.77467 35.5909C3.80041 35.6853 3.88619 35.7539 3.98485 35.7539C4.08351 35.7539 4.16929 35.6853 4.19074 35.5909C4.64113 33.8151 6.02231 32.4296 7.80241 31.9749C7.89678 31.9535 7.96541 31.8677 7.96541 31.7691C7.96541 31.6704 7.89678 31.5846 7.80241 31.5632C6.93167 31.3401 6.13813 30.8897 5.49901 30.2549C5.33172 30.0876 5.17301 29.9032 5.02717 29.7059C4.63255 29.174 4.35374 28.5863 4.19074 27.9515C4.16929 27.8571 4.08351 27.7885 3.98485 27.7885C3.88619 27.7885 3.80041 27.8571 3.77467 27.9515C3.55591 28.8222 3.10552 29.6158 2.4664 30.2549Z" fill="#FBAE2E"/>
<defs>
<clipPath id="clip0_6511_35137">
<rect width="54" height="48.0938" fill="white" transform="translate(5)"/>
</clipPath>
</defs>
</svg>
