<svg width="20" height="20" viewBox="0 0 20 20" fill="none" xmlns="http://www.w3.org/2000/svg">
<path fill-rule="evenodd" clip-rule="evenodd" d="M13.3333 2.5C15.6345 2.5 17.5 4.36548 17.5 6.66667V10C17.5 10.3824 17.2398 10.7157 16.8688 10.8085L14.1667 11.484V16.6667C14.1667 17.1269 13.7936 17.5 13.3333 17.5C12.8731 17.5 12.5 17.1269 12.5 16.6667V3.33333C12.5 2.8731 12.8731 2.5 13.3333 2.5ZM14.1667 9.76602L15.8333 9.34935V6.66667C15.8333 5.57815 15.1377 4.65212 14.1667 4.30892V9.76602Z" fill="white"/>
<path d="M4.16667 3.33333C4.16667 2.8731 3.79357 2.5 3.33333 2.5C2.8731 2.5 2.5 2.8731 2.5 3.33333V5C2.5 7.0158 3.93147 8.69726 5.83333 9.08332V16.6667C5.83333 17.1269 6.20643 17.5 6.66667 17.5C7.1269 17.5 7.5 17.1269 7.5 16.6667V9.08332C9.40187 8.69726 10.8333 7.0158 10.8333 5V3.33333C10.8333 2.8731 10.4602 2.5 10 2.5C9.53976 2.5 9.16667 2.8731 9.16667 3.33333V5C9.16667 6.08852 8.47099 7.01455 7.5 7.35775V3.33333C7.5 2.8731 7.1269 2.5 6.66667 2.5C6.20643 2.5 5.83333 2.8731 5.83333 3.33333V7.35775C4.86234 7.01455 4.16667 6.08852 4.16667 5V3.33333Z" fill="white"/>
</svg>
