<svg width="40" height="40" viewBox="0 0 40 40" fill="none" xmlns="http://www.w3.org/2000/svg">
<g clip-path="url(#clip0_6295_12885)">
<rect width="40" height="40" rx="9" fill="url(#paint0_linear_6295_12885)" fill-opacity="0.15"/>
<path opacity="0.5" d="M34.741 28.6101C33.9176 27.2366 30.7637 25.8077 27.7316 25.4351C25.8723 25.2249 23.3816 25.0085 20.0004 25.0054C16.6191 25.0093 14.1277 25.2249 12.2691 25.4351C9.23711 25.8085 6.0832 27.2366 5.25977 28.6101C4.7957 29.4522 4.31914 30.5804 4.31055 32.1124C4.31914 33.6437 4.7957 34.7726 5.25977 35.6147C6.0832 36.9882 9.23711 38.4171 12.2691 38.7897C14.1285 38.9999 16.6199 39.2163 20.0004 39.2194C23.3816 39.2155 25.8723 38.9991 27.7316 38.7897C30.7645 38.4171 33.9176 36.9882 34.741 35.6147C35.2043 34.7726 35.6816 33.6444 35.6902 32.1124C35.6816 30.5812 35.2043 29.4522 34.741 28.6101Z" fill="url(#paint1_radial_6295_12885)"/>
<path d="M24.8465 13.4103C25.1316 12.7251 26.0715 11.4017 29.0457 11.7165C29.291 11.7423 29.5363 11.6618 29.7168 11.4939C29.916 11.3095 30.1363 11.029 30.1934 10.6587C30.2559 10.254 30.1902 9.94074 30.0965 9.71574C29.9855 9.45011 29.7402 9.26496 29.4566 9.21574C28.2105 8.99933 23.6074 8.47199 21.7871 12.6892L24.8457 13.4103H24.8465Z" fill="url(#paint2_linear_6295_12885)"/>
<path d="M29.0469 11.7162C29.2922 11.742 29.5375 11.6615 29.718 11.4935C29.9172 11.3092 30.1375 11.0287 30.1946 10.6584C30.2571 10.2537 30.1914 9.94042 30.0977 9.71542C29.9868 9.44979 29.7414 9.26464 29.4578 9.21542C29.4578 9.21542 28.543 9.07167 28.3649 10.3303C28.2008 11.4928 29.0461 11.7154 29.0461 11.7154L29.0469 11.7162Z" fill="url(#paint3_linear_6295_12885)"/>
<path d="M20.1801 12.5322C20.7293 11.4455 21.034 9.14157 21.0941 7.80798C21.1105 7.43688 20.8871 7.09626 20.541 6.96266C19.9387 6.73063 18.927 6.51422 17.8285 7.02516C17.5887 7.13688 17.4137 7.35251 17.3512 7.60954C17.2324 8.09469 16.3949 10.7798 14.6699 11.8556L20.1809 12.5322H20.1801Z" fill="url(#paint4_linear_6295_12885)"/>
<path d="M28.9319 19.8389C28.8209 16.4068 27.1139 14.4521 24.8287 13.41C24.8287 13.41 23.8092 12.9295 22.667 12.7076C22.6678 12.7084 22.6686 12.7092 22.6694 12.7107C22.6686 12.71 22.6678 12.7084 22.667 12.7076C22.667 12.7076 21.5092 12.574 20.7905 12.8889C19.7366 12.0186 18.3858 11.4951 16.9147 11.4951C13.553 11.4951 9.78031 13.9709 9.78031 18.6295C9.78031 18.6295 9.74593 22.8342 11.8803 26.5084C11.8803 26.5084 15.7725 33.2873 20.242 33.2873C21.3983 33.2873 22.5553 32.8904 23.492 32.0959C26.8241 29.2717 28.9397 25.0553 28.9397 20.3443C28.9397 20.1748 28.9366 20.0061 28.9319 19.8381V19.8389Z" fill="url(#paint5_radial_6295_12885)"/>
<path d="M20.7871 12.8891C21.5051 12.5742 22.6637 12.7078 22.6637 12.7078C23.7793 14.0196 24.4551 15.7149 24.4613 17.5664C24.4629 17.9617 24.159 18.3024 23.7645 18.318C23.3496 18.3344 23.0082 18.0032 23.0082 17.5922C23.0082 15.7016 22.1426 14.0086 20.7871 12.8899V12.8891Z" fill="url(#paint6_linear_6295_12885)"/>
<path d="M26.0759 22.8744C26.59 23.0541 26.8618 23.6159 26.6821 24.1307C26.0485 25.9487 25.0087 27.6487 23.6767 29.0479C23.4829 29.2518 23.2228 29.3541 22.9626 29.3541C22.7181 29.3541 22.4735 29.2643 22.2829 29.0823C21.8884 28.7065 21.8728 28.0823 22.2485 27.6877C23.3884 26.4901 24.2775 25.0362 24.8196 23.4815C24.9993 22.9674 25.561 22.6955 26.0759 22.8752V22.8744Z" fill="url(#paint7_linear_6295_12885)"/>
<path d="M15.4887 15.796C14.7755 16.2054 13.888 17.0257 13.7114 18.6101C13.6551 19.114 13.2286 19.4874 12.7325 19.4874C12.6958 19.4874 12.6591 19.4851 12.6223 19.4812C12.0809 19.421 11.6911 18.9335 11.7512 18.3921C11.9606 16.5148 12.9387 14.9851 14.5067 14.0851C14.9794 13.814 15.5817 13.9773 15.8528 14.4499C16.1239 14.9226 15.9606 15.5249 15.488 15.796H15.4887Z" fill="url(#paint8_linear_6295_12885)"/>
</g>
<defs>
<linearGradient id="paint0_linear_6295_12885" x1="40" y1="19.9999" x2="9.81648e-09" y2="19.9999" gradientUnits="userSpaceOnUse">
<stop stop-color="#F0681B"/>
<stop offset="1" stop-color="#D91D1D"/>
</linearGradient>
<radialGradient id="paint1_radial_6295_12885" cx="0" cy="0" r="1" gradientUnits="userSpaceOnUse" gradientTransform="translate(20.0004 33.2548) scale(15.6898 7.06043)">
<stop stop-color="#EF3739" stop-opacity="0.6"/>
<stop offset="1" stop-color="#EF3739" stop-opacity="0"/>
</radialGradient>
<linearGradient id="paint2_linear_6295_12885" x1="27.998" y1="13.215" x2="24.316" y2="9.53292" gradientUnits="userSpaceOnUse">
<stop stop-color="#CE1D26"/>
<stop offset="0.54" stop-color="#CE1D26"/>
<stop offset="1" stop-color="#FF8C8B"/>
</linearGradient>
<linearGradient id="paint3_linear_6295_12885" x1="30.0196" y1="11.1935" x2="28.518" y2="9.69198" gradientUnits="userSpaceOnUse">
<stop stop-color="#EF3739"/>
<stop offset="0.44" stop-color="#EF3739"/>
<stop offset="1" stop-color="#FF8C8B"/>
</linearGradient>
<linearGradient id="paint4_linear_6295_12885" x1="20.4809" y1="12.2322" x2="16.5145" y2="8.26501" gradientUnits="userSpaceOnUse">
<stop stop-color="#CE1D26"/>
<stop offset="0.54" stop-color="#CE1D26"/>
<stop offset="1" stop-color="#FF8C8B"/>
</linearGradient>
<radialGradient id="paint5_radial_6295_12885" cx="0" cy="0" r="1" gradientUnits="userSpaceOnUse" gradientTransform="translate(13.3764 14.8342) scale(36.0766 36.0766)">
<stop stop-color="#FF8C8B"/>
<stop offset="0.46" stop-color="#EF3739"/>
<stop offset="1" stop-color="#EF3739"/>
</radialGradient>
<linearGradient id="paint6_linear_6295_12885" x1="24.9418" y1="17.4055" x2="20.6059" y2="13.0703" gradientUnits="userSpaceOnUse">
<stop stop-color="#CE1D26"/>
<stop offset="0.54" stop-color="#CE1D26"/>
<stop offset="1" stop-color="#FF8C8B"/>
</linearGradient>
<linearGradient id="paint7_linear_6295_12885" x1="29.1243" y1="30.5776" x2="20.804" y2="22.7385" gradientUnits="userSpaceOnUse">
<stop stop-color="#CE1D26"/>
<stop offset="0.54" stop-color="#CE1D26"/>
<stop offset="1" stop-color="#FF8C8B"/>
</linearGradient>
<linearGradient id="paint8_linear_6295_12885" x1="14.8856" y1="17.7413" x2="12.7294" y2="15.5859" gradientUnits="userSpaceOnUse">
<stop stop-color="#FFD2D2"/>
<stop offset="0.57" stop-color="white"/>
<stop offset="1" stop-color="white"/>
</linearGradient>
<clipPath id="clip0_6295_12885">
<rect width="40" height="40" fill="white"/>
</clipPath>
</defs>
</svg>
