<svg width="24" height="24" viewBox="0 0 24 24" fill="none" xmlns="http://www.w3.org/2000/svg">
<path d="M3.02004 4.14551C2.87988 4.29251 2.87988 4.52951 2.87988 4.99951V18.9995C2.87988 19.4705 2.87988 19.7065 3.02004 19.8535C3.16116 19.9995 3.38868 19.9995 3.83988 19.9995C4.29108 19.9995 4.5186 19.9995 4.65972 19.8535C4.79988 19.7065 4.79988 19.4695 4.79988 18.9995V4.99951C4.79988 4.52851 4.79988 4.29251 4.65972 4.14551C4.5186 3.99951 4.29108 3.99951 3.83988 3.99951C3.38868 3.99951 3.16116 3.99951 3.02004 4.14551ZM12.6488 4.17551C12.4799 4.34951 12.4799 4.63351 12.4799 5.19951V18.7995C12.4799 19.3655 12.4799 19.6475 12.6488 19.8235C12.8168 19.9995 13.0885 19.9995 13.6319 19.9995H13.7279C14.2712 19.9995 14.542 19.9995 14.7109 19.8235C14.8799 19.6475 14.8799 19.3655 14.8799 18.7995V5.19951C14.8799 4.63351 14.8799 4.35051 14.7109 4.17551C14.5439 3.99951 14.2712 3.99951 13.7279 3.99951H13.6319C13.0885 3.99951 12.8178 3.99951 12.6488 4.17551ZM6.23988 4.74951C6.23988 4.51651 6.23988 4.39951 6.27636 4.30851C6.32507 4.18634 6.41828 4.08925 6.53556 4.03851C6.6258 3.99951 6.73716 3.99951 6.95988 3.99951C7.1826 3.99951 7.29588 3.99951 7.38324 4.03751C7.50053 4.08825 7.59374 4.18534 7.64244 4.30751C7.67988 4.40151 7.67988 4.51751 7.67988 4.74951V19.2495C7.67988 19.4825 7.67988 19.5995 7.6434 19.6905C7.5947 19.8127 7.50149 19.9098 7.3842 19.9605C7.29396 19.9995 7.1826 19.9995 6.95988 19.9995C6.73716 19.9995 6.62388 19.9995 6.53652 19.9615C6.41924 19.9108 6.32603 19.8137 6.27732 19.6915C6.23988 19.5985 6.23988 19.4825 6.23988 19.2495V4.74951ZM19.7164 4.30851C19.6799 4.40051 19.6799 4.51651 19.6799 4.74951V19.2495C19.6799 19.4825 19.6799 19.5995 19.7164 19.6905C19.7651 19.8127 19.8583 19.9098 19.9756 19.9605C20.0648 19.9995 20.1762 19.9995 20.3999 19.9995C20.6236 19.9995 20.7359 19.9995 20.8232 19.9615C20.9405 19.9108 21.0337 19.8137 21.0824 19.6915C21.1199 19.5985 21.1199 19.4825 21.1199 19.2495V4.74951C21.1199 4.51651 21.1199 4.39951 21.0834 4.30851C21.0347 4.18634 20.9415 4.08925 20.8242 4.03851C20.734 3.99951 20.6226 3.99951 20.3999 3.99951C20.1772 3.99951 20.0639 3.99951 19.9765 4.03751C19.8592 4.08825 19.766 4.18534 19.7173 4.30751L19.7164 4.30851ZM9.59988 4.49951C9.59988 4.31251 9.59988 4.21951 9.63828 4.14951C9.66359 4.10381 9.70001 4.06587 9.74388 4.03951C9.81108 3.99951 9.90036 3.99951 10.0799 3.99951C10.2594 3.99951 10.3487 3.99951 10.4159 4.03951C10.4598 4.06587 10.4962 4.10381 10.5215 4.14951C10.5599 4.21951 10.5599 4.31251 10.5599 4.49951V19.4995C10.5599 19.6865 10.5599 19.7795 10.5215 19.8495C10.4962 19.8952 10.4598 19.9332 10.4159 19.9595C10.3487 19.9995 10.2594 19.9995 10.0799 19.9995C9.90036 19.9995 9.81108 19.9995 9.74388 19.9595C9.70001 19.9332 9.66359 19.8952 9.63828 19.8495C9.59988 19.7795 9.59988 19.6865 9.59988 19.4995V4.49951ZM16.8383 4.14951C16.7999 4.21951 16.7999 4.31251 16.7999 4.49951V19.4995C16.7999 19.6865 16.7999 19.7795 16.8383 19.8495C16.8636 19.8952 16.9 19.9332 16.9439 19.9595C17.0111 19.9995 17.1004 19.9995 17.2799 19.9995C17.4594 19.9995 17.5487 19.9995 17.6159 19.9595C17.6598 19.9332 17.6962 19.8952 17.7215 19.8495C17.7599 19.7795 17.7599 19.6865 17.7599 19.4995V4.49951C17.7599 4.31251 17.7599 4.21951 17.7215 4.14951C17.6962 4.10381 17.6598 4.06587 17.6159 4.03951C17.5487 3.99951 17.4594 3.99951 17.2799 3.99951C17.1004 3.99951 17.0111 3.99951 16.9439 4.03951C16.9 4.06587 16.8636 4.10381 16.8383 4.14951Z" fill="#9CA0B2"/>
</svg>
