<svg width="24" height="24" viewBox="0 0 24 24" fill="none" xmlns="http://www.w3.org/2000/svg">
<path d="M18 4H6C4.89543 4 4 4.89543 4 6V18C4 19.1046 4.89543 20 6 20H18C19.1046 20 20 19.1046 20 18V6C20 4.89543 19.1046 4 18 4Z" fill="url(#paint0_linear_5953_5344)"/>
<path d="M15 11C16.1046 11 17 10.1046 17 9C17 7.89543 16.1046 7 15 7C13.8954 7 13 7.89543 13 9C13 10.1046 13.8954 11 15 11Z" fill="url(#paint1_linear_5953_5344)"/>
<path d="M18 3H6C5.20435 3 4.44129 3.31607 3.87868 3.87868C3.31607 4.44129 3 5.20435 3 6V18C3 18.7956 3.31607 19.5587 3.87868 20.1213C4.44129 20.6839 5.20435 21 6 21H18C18.7956 21 19.5587 20.6839 20.1213 20.1213C20.6839 19.5587 21 18.7956 21 18V6C21 5.20435 20.6839 4.44129 20.1213 3.87868C19.5587 3.31607 18.7956 3 18 3ZM19 18C18.9988 18.2054 18.9341 18.4053 18.8146 18.5724C18.6952 18.7395 18.5269 18.8654 18.333 18.933L11.521 12.4C10.6513 11.5841 9.52453 11.0968 8.33441 11.0218C7.1443 10.9467 5.96524 11.2888 5 11.989V6C5 5.73478 5.10536 5.48043 5.29289 5.29289C5.48043 5.10536 5.73478 5 6 5H18C18.2652 5 18.5196 5.10536 18.7071 5.29289C18.8946 5.48043 19 5.73478 19 6V18Z" fill="url(#paint2_linear_5953_5344)"/>
<defs>
<linearGradient id="paint0_linear_5953_5344" x1="4.586" y1="4.586" x2="19.414" y2="19.414" gradientUnits="userSpaceOnUse">
<stop stop-color="#EFFFF4"/>
<stop offset="1" stop-color="#D1FFEC"/>
</linearGradient>
<linearGradient id="paint1_linear_5953_5344" x1="13.586" y1="7.586" x2="16.414" y2="10.414" gradientUnits="userSpaceOnUse">
<stop stop-color="#FFDD00"/>
<stop offset="1" stop-color="#FEB100"/>
</linearGradient>
<linearGradient id="paint2_linear_5953_5344" x1="3.88" y1="3.88" x2="20.12" y2="20.12" gradientUnits="userSpaceOnUse">
<stop stop-color="#6BE8A7"/>
<stop offset="1" stop-color="#01B59C"/>
</linearGradient>
</defs>
</svg>
