<svg width="20" height="20" viewBox="0 0 20 20" fill="none" xmlns="http://www.w3.org/2000/svg">
<path fill-rule="evenodd" clip-rule="evenodd" d="M5.29292 1.93377L16.9513 7.7671C17.3669 7.97374 17.7166 8.29226 17.961 8.68681C18.2055 9.08136 18.335 9.53629 18.335 10.0004C18.335 10.4646 18.2055 10.9195 17.961 11.3141C17.7166 11.7086 17.3669 12.0271 16.9513 12.2338L5.29292 18.0671C4.94249 18.2387 4.55811 18.3298 4.16792 18.3338C3.52655 18.332 2.91099 18.081 2.45126 17.6338C2.07518 17.2817 1.81902 16.8206 1.71886 16.3153C1.6187 15.81 1.67958 15.286 1.89292 14.8171L3.67587 10.8346H11.2174C11.327 10.835 11.4355 10.8136 11.5367 10.7719C11.638 10.7301 11.73 10.6687 11.8074 10.5913C11.8849 10.5138 11.9463 10.4219 11.988 10.3206C12.0298 10.2193 12.0511 10.1108 12.0508 10.0013C12.0511 9.89178 12.0298 9.78327 11.988 9.68201C11.9463 9.58076 11.8849 9.48876 11.8074 9.41131C11.73 9.33387 11.638 9.2725 11.5367 9.23073C11.4355 9.18897 11.327 9.16764 11.2174 9.16797H3.67664L3.67626 9.1671L1.89292 5.18377C1.68476 4.71348 1.6267 4.19043 1.72667 3.68594C1.82664 3.18145 2.07976 2.72007 2.45153 2.3647C2.82331 2.00932 3.29563 1.77726 3.80412 1.70014C4.3126 1.62302 4.8325 1.70461 5.29292 1.93377Z" fill="white"/>
</svg>
