<svg width="20" height="20" viewBox="0 0 20 20" fill="none" xmlns="http://www.w3.org/2000/svg">
<path d="M1.66663 5.83333C1.66663 5.3731 2.03972 5 2.49996 5H5.83329V6.66667H2.49996C2.03972 6.66667 1.66663 6.29357 1.66663 5.83333Z" fill="#83899F"/>
<path d="M2.49996 13.3333C2.03972 13.3333 1.66663 13.7064 1.66663 14.1667C1.66663 14.6269 2.03972 15 2.49996 15H12.5V13.3333H2.49996Z" fill="#83899F"/>
<path d="M14.1666 13.3333V15H17.5C17.9602 15 18.3333 14.6269 18.3333 14.1667C18.3333 13.7064 17.9602 13.3333 17.5 13.3333H14.1666Z" fill="#83899F"/>
<path d="M7.49996 5V6.66667H17.5C17.9602 6.66667 18.3333 6.29357 18.3333 5.83333C18.3333 5.3731 17.9602 5 17.5 5H7.49996Z" fill="#83899F"/>
<path fill-rule="evenodd" clip-rule="evenodd" d="M9.16663 5.83337C9.16663 7.21409 8.04734 8.33337 6.66663 8.33337C5.28591 8.33337 4.16663 7.21409 4.16663 5.83337C4.16663 4.45266 5.28591 3.33337 6.66663 3.33337C8.04734 3.33337 9.16663 4.45266 9.16663 5.83337ZM7.49996 5.83337C7.49996 6.29361 7.12686 6.66671 6.66663 6.66671C6.20639 6.66671 5.83329 6.29361 5.83329 5.83337C5.83329 5.37314 6.20639 5.00004 6.66663 5.00004C7.12686 5.00004 7.49996 5.37314 7.49996 5.83337Z" fill="#83899F"/>
<path fill-rule="evenodd" clip-rule="evenodd" d="M15.8333 14.1667C15.8333 15.5474 14.714 16.6667 13.3333 16.6667C11.9526 16.6667 10.8333 15.5474 10.8333 14.1667C10.8333 12.786 11.9526 11.6667 13.3333 11.6667C14.714 11.6667 15.8333 12.786 15.8333 14.1667ZM14.1666 14.1667C14.1666 14.6269 13.7935 15 13.3333 15C12.8731 15 12.5 14.6269 12.5 14.1667C12.5 13.7065 12.8731 13.3334 13.3333 13.3334C13.7935 13.3334 14.1666 13.7065 14.1666 14.1667Z" fill="#83899F"/>
</svg>
