<svg width="16" height="10" viewBox="0 0 16 10" fill="none" xmlns="http://www.w3.org/2000/svg">
<path d="M4.36364 5.33333C4.79516 5.33333 5.21699 5.21604 5.57579 4.99627C5.93459 4.77651 6.21424 4.46415 6.37937 4.0987C6.54451 3.73325 6.58772 3.33111 6.50353 2.94315C6.41935 2.55519 6.21155 2.19882 5.90642 1.91912C5.60128 1.63941 5.21252 1.44893 4.78929 1.37176C4.36606 1.29459 3.92737 1.3342 3.52869 1.48557C3.13002 1.63695 2.78926 1.89329 2.54952 2.22219C2.30978 2.55109 2.18182 2.93777 2.18182 3.33333C2.18182 3.86377 2.41169 4.37247 2.82086 4.74755C3.23003 5.12262 3.78498 5.33333 4.36364 5.33333ZM4.36364 2.66667C4.50748 2.66667 4.64809 2.70577 4.76769 2.77902C4.88729 2.85227 4.9805 2.95639 5.03555 3.07821C5.09059 3.20003 5.105 3.33407 5.07693 3.46339C5.04887 3.59271 4.97961 3.7115 4.8779 3.80474C4.77618 3.89797 4.6466 3.96147 4.50552 3.98719C4.36444 4.01291 4.21821 3.99971 4.08532 3.94925C3.95243 3.89879 3.83885 3.81335 3.75893 3.70371C3.67902 3.59408 3.63636 3.46519 3.63636 3.33333C3.63636 3.15652 3.71299 2.98695 3.84938 2.86193C3.98577 2.7369 4.17075 2.66667 4.36364 2.66667ZM13.8182 1.33333H8C7.80712 1.33333 7.62213 1.40357 7.48574 1.5286C7.34935 1.65362 7.27273 1.82319 7.27273 2V6H1.45455V0.666667C1.45455 0.489856 1.37792 0.320287 1.24153 0.195262C1.10514 0.070238 0.920157 0 0.727273 0C0.534388 0 0.349403 0.070238 0.213013 0.195262C0.0766231 0.320287 0 0.489856 0 0.666667V9.33333C0 9.51014 0.0766231 9.67971 0.213013 9.80474C0.349403 9.92976 0.534388 10 0.727273 10C0.920157 10 1.10514 9.92976 1.24153 9.80474C1.37792 9.67971 1.45455 9.51014 1.45455 9.33333V7.33333H14.5455V9.33333C14.5455 9.51014 14.6221 9.67971 14.7585 9.80474C14.8949 9.92976 15.0798 10 15.2727 10C15.4656 10 15.6506 9.92976 15.787 9.80474C15.9234 9.67971 16 9.51014 16 9.33333V3.33333C16 2.8029 15.7701 2.29419 15.361 1.91912C14.9518 1.54405 14.3968 1.33333 13.8182 1.33333ZM14.5455 6H8.72727V2.66667H13.8182C14.0111 2.66667 14.1961 2.7369 14.3324 2.86193C14.4688 2.98695 14.5455 3.15652 14.5455 3.33333V6Z" fill="#0A1B39"/>
</svg>
