<svg width="18" height="18" viewBox="0 0 18 18" fill="none" xmlns="http://www.w3.org/2000/svg">
<path d="M13.2826 8.46767L9.53264 4.71767C9.46131 4.64939 9.3772 4.59586 9.28514 4.56017C9.10254 4.48515 8.89774 4.48515 8.71514 4.56017C8.62308 4.59586 8.53897 4.64939 8.46764 4.71767L4.71764 8.46767C4.64771 8.5376 4.59224 8.62061 4.55439 8.71198C4.51655 8.80335 4.49707 8.90127 4.49707 9.00017C4.49707 9.19989 4.57641 9.39144 4.71764 9.53267C4.85887 9.67389 5.05041 9.75323 5.25014 9.75323C5.44987 9.75323 5.64141 9.67389 5.78264 9.53267L8.25014 7.05767V12.7502C8.25014 12.9491 8.32916 13.1398 8.46981 13.2805C8.61046 13.4211 8.80123 13.5002 9.00014 13.5002C9.19905 13.5002 9.38982 13.4211 9.53047 13.2805C9.67112 13.1398 9.75014 12.9491 9.75014 12.7502V7.05767L12.2176 9.53267C12.2874 9.60296 12.3703 9.65876 12.4617 9.69683C12.5531 9.73491 12.6511 9.75452 12.7501 9.75452C12.8491 9.75452 12.9472 9.73491 13.0386 9.69683C13.13 9.65876 13.2129 9.60296 13.2826 9.53267C13.3529 9.46294 13.4087 9.37999 13.4468 9.2886C13.4849 9.1972 13.5045 9.09918 13.5045 9.00017C13.5045 8.90116 13.4849 8.80313 13.4468 8.71173C13.4087 8.62034 13.3529 8.53739 13.2826 8.46767Z" fill="#9CA0B2"/>
</svg>
