<svg width="20" height="20" viewBox="0 0 20 20" fill="none" xmlns="http://www.w3.org/2000/svg">
<path fill-rule="evenodd" clip-rule="evenodd" d="M2.77248 3.86502C2.5 4.3998 2.5 5.09987 2.5 6.5V13.5C2.5 14.9001 2.5 15.6002 2.77248 16.135C3.01217 16.6054 3.39462 16.9878 3.86502 17.2275C4.3998 17.5 5.09987 17.5 6.5 17.5H13.5C14.9001 17.5 15.6002 17.5 16.135 17.2275C16.6054 16.9878 16.9878 16.6054 17.2275 16.135C17.5 15.6002 17.5 14.9001 17.5 13.5V6.5C17.5 5.09987 17.5 4.3998 17.2275 3.86502C16.9878 3.39462 16.6054 3.01217 16.135 2.77248C15.6002 2.5 14.9001 2.5 13.5 2.5H6.5C5.09987 2.5 4.3998 2.5 3.86502 2.77248C3.39462 3.01217 3.01217 3.39462 2.77248 3.86502ZM15.7906 5.26352C15.9361 4.8269 15.7001 4.35497 15.2635 4.20943C14.8269 4.06389 14.355 4.29986 14.2094 4.73648L12.5622 9.67814C12.3663 10.2658 11.6204 10.4419 11.1824 10.0039L9.99613 8.81762C8.682 7.50349 6.44435 8.03172 5.85665 9.79481L4.20943 14.7365C4.06389 15.1731 4.29986 15.645 4.73648 15.7906C5.1731 15.9361 5.64503 15.7001 5.79057 15.2635L7.43779 10.3219C7.63369 9.73416 8.37957 9.55808 8.81762 9.99613L10.0039 11.1824C11.318 12.4965 13.5557 11.9683 14.1433 10.2052L15.7906 5.26352Z" fill="#262E3D"/>
</svg>
