<svg width="28" height="28" viewBox="0 0 28 28" fill="none" xmlns="http://www.w3.org/2000/svg">
<g clip-path="url(#clip0_5197_7443)">
<path d="M21.2372 24.2582L19.4538 15.7227C19.2573 14.7822 19.4664 13.8056 20.0173 13.0184C20.5142 12.3085 20.79 11.5234 20.79 10.6979C20.79 7.51538 16.6908 4.93542 11.6342 4.93542C6.5775 4.93542 2.47825 7.51538 2.47825 10.6979C2.47825 11.5234 2.75411 12.3085 3.25096 13.0184C3.80192 13.8056 4.011 14.7822 3.81449 15.7227L2.0311 24.2582C1.84343 25.1564 2.52898 26 3.44658 26H19.8217C20.7393 26 21.4248 25.1564 21.2372 24.2582Z" fill="url(#paint0_linear_5197_7443)"/>
<path d="M3.44656 24.8234C3.34049 24.8234 3.27423 24.7693 3.23734 24.7239C3.20045 24.6785 3.16101 24.6025 3.1827 24.4988L4.96609 15.9633C5.22638 14.7172 4.95259 13.3979 4.2148 12.3438C3.84318 11.8127 3.65475 11.2589 3.65475 10.6977C3.65475 9.57746 4.41188 8.484 5.78661 7.61878C7.33071 6.64702 9.40736 6.11182 11.6341 6.11182C13.8609 6.11182 15.9376 6.64702 17.4817 7.61878C18.8564 8.484 19.6135 9.57746 19.6135 10.6977C19.6135 11.2589 19.4251 11.8127 19.0534 12.3438C18.3157 13.3979 18.0419 14.7172 18.3022 15.9632L20.0856 24.4987C20.1073 24.6025 20.0678 24.6784 20.0309 24.7238C19.994 24.7693 19.9278 24.8234 19.8217 24.8234H3.44656V24.8234Z" fill="url(#paint1_linear_5197_7443)"/>
<path d="M18.3022 15.9632C18.0419 14.7172 18.3157 13.3979 19.0534 12.3438C19.4251 11.8127 19.6135 11.2589 19.6135 10.6977C19.6135 9.57746 18.8564 8.484 17.4817 7.61878C15.9376 6.64702 13.8609 6.11182 11.6341 6.11182C10.6701 6.11182 9.73437 6.21229 8.85767 6.4049V24.8234H19.8217C19.9277 24.8234 19.994 24.7693 20.0309 24.7239C20.0678 24.6785 20.1072 24.6025 20.0855 24.4988L18.3022 15.9632Z" fill="url(#paint2_linear_5197_7443)"/>
<path d="M18.4886 16.8556H4.77969L3.1827 24.4987C3.16101 24.6024 3.20045 24.6783 3.23734 24.7237C3.27423 24.7692 3.34049 24.8233 3.44656 24.8233H19.8217C19.9277 24.8233 19.994 24.7692 20.0309 24.7237C20.0678 24.6783 20.1072 24.6024 20.0855 24.4987L18.4886 16.8556Z" fill="url(#paint3_linear_5197_7443)"/>
<path d="M2.0311 24.258C1.84343 25.1562 2.52898 25.9998 3.44658 25.9998H19.8217C20.7393 25.9998 21.4248 25.1562 21.2372 24.258L19.6905 16.8556H3.57773L2.0311 24.258Z" fill="url(#paint4_linear_5197_7443)"/>
<path d="M19.4538 15.7226C19.2572 14.782 19.4664 13.8055 20.0173 13.0183C20.5141 12.3083 20.79 11.5233 20.79 10.6977C20.79 7.51521 16.6908 4.9353 11.6341 4.9353C10.6661 4.9353 9.73343 5.03013 8.85767 5.20537V25.9999H19.8217C20.7393 25.9999 21.4249 25.1562 21.2372 24.2581L19.4538 15.7226Z" fill="url(#paint5_linear_5197_7443)"/>
<path d="M16.2918 15.6856C16.8046 15.6856 17.2203 15.2699 17.2203 14.7571C17.2203 14.2443 16.8046 13.8286 16.2918 13.8286C15.779 13.8286 15.3633 14.2443 15.3633 14.7571C15.3633 15.2699 15.779 15.6856 16.2918 15.6856Z" fill="url(#paint6_linear_5197_7443)"/>
<path d="M8.10192 17.0594C8.61472 17.0594 9.03044 16.6437 9.03044 16.1309C9.03044 15.6181 8.61472 15.2024 8.10192 15.2024C7.58911 15.2024 7.1734 15.6181 7.1734 16.1309C7.1734 16.6437 7.58911 17.0594 8.10192 17.0594Z" fill="url(#paint7_linear_5197_7443)"/>
<path d="M17.6392 23.7418C18.152 23.7418 18.5677 23.3261 18.5677 22.8133C18.5677 22.3005 18.152 21.8848 17.6392 21.8848C17.1264 21.8848 16.7107 22.3005 16.7107 22.8133C16.7107 23.3261 17.1264 23.7418 17.6392 23.7418Z" fill="url(#paint8_linear_5197_7443)"/>
<path d="M14.1099 14.5251C14.4945 14.5251 14.8063 14.2133 14.8063 13.8287C14.8063 13.4441 14.4945 13.1323 14.1099 13.1323C13.7253 13.1323 13.4135 13.4441 13.4135 13.8287C13.4135 14.2133 13.7253 14.5251 14.1099 14.5251Z" fill="url(#paint9_linear_5197_7443)"/>
<path d="M8.05343 11.0125C8.43803 11.0125 8.74981 10.7007 8.74981 10.3161C8.74981 9.93153 8.43803 9.61975 8.05343 9.61975C7.66883 9.61975 7.35706 9.93153 7.35706 10.3161C7.35706 10.7007 7.66883 11.0125 8.05343 11.0125Z" fill="url(#paint10_linear_5197_7443)"/>
<path d="M14.3652 9.92901C14.7498 9.92901 15.0616 9.61723 15.0616 9.23263C15.0616 8.84803 14.7498 8.53625 14.3652 8.53625C13.9806 8.53625 13.6688 8.84803 13.6688 9.23263C13.6688 9.61723 13.9806 9.92901 14.3652 9.92901Z" fill="url(#paint11_linear_5197_7443)"/>
<path d="M12.2632 21.0035C12.6478 21.0035 12.9596 20.6917 12.9596 20.3071C12.9596 19.9225 12.6478 19.6107 12.2632 19.6107C11.8786 19.6107 11.5668 19.9225 11.5668 20.3071C11.5668 20.6917 11.8786 21.0035 12.2632 21.0035Z" fill="url(#paint12_linear_5197_7443)"/>
<path d="M15.8044 12.2735C16.0992 12.2735 16.3383 12.0344 16.3383 11.7396C16.3383 11.4447 16.0992 11.2057 15.8044 11.2057C15.5095 11.2057 15.2705 11.4447 15.2705 11.7396C15.2705 12.0344 15.5095 12.2735 15.8044 12.2735Z" fill="url(#paint13_linear_5197_7443)"/>
<path d="M10.7905 13.3644C11.0853 13.3644 11.3244 13.1254 11.3244 12.8305C11.3244 12.5357 11.0853 12.2966 10.7905 12.2966C10.4956 12.2966 10.2566 12.5357 10.2566 12.8305C10.2566 13.1254 10.4956 13.3644 10.7905 13.3644Z" fill="url(#paint14_linear_5197_7443)"/>
<path d="M14.6493 19.6703C14.9442 19.6703 15.1832 19.4313 15.1832 19.1364C15.1832 18.8416 14.9442 18.6025 14.6493 18.6025C14.3544 18.6025 14.1154 18.8416 14.1154 19.1364C14.1154 19.4313 14.3544 19.6703 14.6493 19.6703Z" fill="url(#paint15_linear_5197_7443)"/>
<path d="M7.214 21.835C7.50885 21.835 7.74788 21.5959 7.74788 21.3011C7.74788 21.0062 7.50885 20.7672 7.214 20.7672C6.91914 20.7672 6.68011 21.0062 6.68011 21.3011C6.68011 21.5959 6.91914 21.835 7.214 21.835Z" fill="url(#paint16_linear_5197_7443)"/>
<path d="M6.41541 12.8579C6.71027 12.8579 6.9493 12.6189 6.9493 12.324C6.9493 12.0292 6.71027 11.7902 6.41541 11.7902C6.12056 11.7902 5.88153 12.0292 5.88153 12.324C5.88153 12.6189 6.12056 12.8579 6.41541 12.8579Z" fill="url(#paint17_linear_5197_7443)"/>
<path d="M10.5647 26.0001H19.8217C20.7393 26.0001 21.4248 25.1564 21.2372 24.2583L20.9128 22.7059H7.27057L10.5647 26.0001Z" fill="url(#paint18_linear_5197_7443)"/>
<path d="M25.9689 21.3227L24.1855 12.7873C23.989 11.8467 24.1981 10.8702 24.7491 10.083C25.2459 9.37304 25.5218 8.588 25.5218 7.76245C25.5218 4.57995 21.4225 2 16.3659 2C11.3092 2 7.21005 4.57995 7.21005 7.76245C7.21005 8.588 7.48591 9.37304 7.98275 10.083C8.53372 10.8702 8.7428 11.8467 8.54628 12.7873L6.76285 21.3227C6.57518 22.2209 7.26073 23.0645 8.17833 23.0645H24.5534C25.471 23.0646 26.1566 22.2209 25.9689 21.3227Z" fill="url(#paint19_linear_5197_7443)"/>
<path d="M8.17831 21.8881C8.07224 21.8881 8.00598 21.834 7.96909 21.7885C7.9322 21.7431 7.89276 21.6672 7.91446 21.5634L9.69784 13.028C9.95813 11.7819 9.68434 10.4626 8.94655 9.40847C8.57493 8.87741 8.3865 8.32357 8.3865 7.76244C8.3865 6.64216 9.14363 5.5487 10.5184 4.68348C12.0625 3.71171 14.1391 3.17651 16.3659 3.17651C18.5927 3.17651 20.6693 3.71171 22.2134 4.68348C23.5882 5.5487 24.3453 6.64216 24.3453 7.76244C24.3453 8.32357 24.1569 8.87736 23.7852 9.40847C23.0474 10.4626 22.7737 11.7819 23.0339 13.0279L24.8173 21.5634C24.839 21.6672 24.7996 21.7431 24.7627 21.7885C24.7258 21.834 24.6595 21.8881 24.5535 21.8881H8.17831Z" fill="url(#paint20_linear_5197_7443)"/>
<path d="M23.0339 13.0279C22.7736 11.7819 23.0474 10.4626 23.7851 9.40847C24.1568 8.87741 24.3452 8.32357 24.3452 7.76244C24.3452 6.64216 23.5881 5.5487 22.2134 4.68348C20.6693 3.71171 18.5926 3.17651 16.3659 3.17651C15.4019 3.17651 14.4661 3.27698 13.5894 3.4696V21.8881H24.5534C24.6595 21.8881 24.7257 21.834 24.7626 21.7885C24.7995 21.7431 24.839 21.6672 24.8173 21.5634L23.0339 13.0279Z" fill="url(#paint21_linear_5197_7443)"/>
<path d="M23.2203 13.9203H9.5114L7.91446 21.5633C7.89276 21.6671 7.9322 21.743 7.96909 21.7884C8.00598 21.8339 8.07224 21.888 8.17831 21.888H24.5534C24.6595 21.888 24.7258 21.8339 24.7626 21.7884C24.7995 21.743 24.839 21.6671 24.8173 21.5633L23.2203 13.9203Z" fill="url(#paint22_linear_5197_7443)"/>
<path d="M6.76285 21.3227C6.57518 22.2209 7.26073 23.0645 8.17833 23.0645H24.5534C25.471 23.0645 26.1566 22.2209 25.9689 21.3227L24.4222 13.9203H8.30953L6.76285 21.3227Z" fill="url(#paint23_linear_5197_7443)"/>
<path d="M24.1855 12.7873C23.989 11.8467 24.1981 10.8702 24.749 10.083C25.2459 9.37299 25.5217 8.588 25.5217 7.7624C25.5217 4.57991 21.4225 2 16.3659 2C15.3979 2 14.4652 2.09482 13.5894 2.27007V23.0646H24.5534C25.471 23.0646 26.1566 22.2209 25.9689 21.3228L24.1855 12.7873Z" fill="url(#paint24_linear_5197_7443)"/>
<path d="M21.0235 12.7502C21.5364 12.7502 21.9521 12.3345 21.9521 11.8217C21.9521 11.3089 21.5364 10.8932 21.0235 10.8932C20.5107 10.8932 20.095 11.3089 20.095 11.8217C20.095 12.3345 20.5107 12.7502 21.0235 12.7502Z" fill="url(#paint25_linear_5197_7443)"/>
<path d="M12.8336 14.124C13.3464 14.124 13.7621 13.7083 13.7621 13.1955C13.7621 12.6827 13.3464 12.267 12.8336 12.267C12.3208 12.267 11.9051 12.6827 11.9051 13.1955C11.9051 13.7083 12.3208 14.124 12.8336 14.124Z" fill="url(#paint26_linear_5197_7443)"/>
<path d="M22.3709 20.8064C22.8837 20.8064 23.2994 20.3907 23.2994 19.8779C23.2994 19.3651 22.8837 18.9493 22.3709 18.9493C21.8581 18.9493 21.4424 19.3651 21.4424 19.8779C21.4424 20.3907 21.8581 20.8064 22.3709 20.8064Z" fill="url(#paint27_linear_5197_7443)"/>
<path d="M18.8416 11.5897C19.2262 11.5897 19.538 11.2779 19.538 10.8933C19.538 10.5087 19.2262 10.1969 18.8416 10.1969C18.457 10.1969 18.1452 10.5087 18.1452 10.8933C18.1452 11.2779 18.457 11.5897 18.8416 11.5897Z" fill="url(#paint28_linear_5197_7443)"/>
<path d="M12.7851 8.07708C13.1697 8.07708 13.4815 7.7653 13.4815 7.3807C13.4815 6.9961 13.1697 6.68433 12.7851 6.68433C12.4005 6.68433 12.0887 6.9961 12.0887 7.3807C12.0887 7.7653 12.4005 8.07708 12.7851 8.07708Z" fill="url(#paint29_linear_5197_7443)"/>
<path d="M19.0969 6.99358C19.4815 6.99358 19.7933 6.6818 19.7933 6.29721C19.7933 5.91261 19.4815 5.60083 19.0969 5.60083C18.7123 5.60083 18.4005 5.91261 18.4005 6.29721C18.4005 6.6818 18.7123 6.99358 19.0969 6.99358Z" fill="url(#paint30_linear_5197_7443)"/>
<path d="M16.9949 18.068C17.3795 18.068 17.6913 17.7563 17.6913 17.3717C17.6913 16.9871 17.3795 16.6753 16.9949 16.6753C16.6103 16.6753 16.2985 16.9871 16.2985 17.3717C16.2985 17.7563 16.6103 18.068 16.9949 18.068Z" fill="url(#paint31_linear_5197_7443)"/>
<path d="M20.536 9.33803C20.8309 9.33803 21.0699 9.099 21.0699 8.80415C21.0699 8.50929 20.8309 8.27026 20.536 8.27026C20.2412 8.27026 20.0021 8.50929 20.0021 8.80415C20.0021 9.099 20.2412 9.33803 20.536 9.33803Z" fill="url(#paint32_linear_5197_7443)"/>
<path d="M15.5222 10.429C15.8171 10.429 16.0561 10.1899 16.0561 9.89509C16.0561 9.60023 15.8171 9.36121 15.5222 9.36121C15.2274 9.36121 14.9883 9.60023 14.9883 9.89509C14.9883 10.1899 15.2274 10.429 15.5222 10.429Z" fill="url(#paint33_linear_5197_7443)"/>
<path d="M19.381 16.7349C19.6759 16.7349 19.9149 16.4959 19.9149 16.201C19.9149 15.9061 19.6759 15.6671 19.381 15.6671C19.0862 15.6671 18.8472 15.9061 18.8472 16.201C18.8472 16.4959 19.0862 16.7349 19.381 16.7349Z" fill="url(#paint34_linear_5197_7443)"/>
<path d="M11.9457 18.8996C12.2406 18.8996 12.4796 18.6605 12.4796 18.3657C12.4796 18.0708 12.2406 17.8318 11.9457 17.8318C11.6509 17.8318 11.4119 18.0708 11.4119 18.3657C11.4119 18.6605 11.6509 18.8996 11.9457 18.8996Z" fill="url(#paint35_linear_5197_7443)"/>
<path d="M11.1472 9.9225C11.442 9.9225 11.681 9.68347 11.681 9.38862C11.681 9.09376 11.442 8.85474 11.1472 8.85474C10.8523 8.85474 10.6133 9.09376 10.6133 9.38862C10.6133 9.68347 10.8523 9.9225 11.1472 9.9225Z" fill="url(#paint36_linear_5197_7443)"/>
</g>
<defs>
<linearGradient id="paint0_linear_5197_7443" x1="2.5767" y1="13.0053" x2="7.28258" y2="14.8877" gradientUnits="userSpaceOnUse">
<stop stop-color="#F89580"/>
<stop offset="1" stop-color="#C4573A"/>
</linearGradient>
<linearGradient id="paint1_linear_5197_7443" x1="3.81334" y1="14.28" x2="8.14275" y2="15.4094" gradientUnits="userSpaceOnUse">
<stop stop-color="#FFFAF8"/>
<stop offset="1" stop-color="#FFDFCF"/>
</linearGradient>
<linearGradient id="paint2_linear_5197_7443" x1="16.293" y1="15.4676" x2="19.6894" y2="15.4676" gradientUnits="userSpaceOnUse">
<stop stop-color="#FFA78F" stop-opacity="0"/>
<stop offset="0.898" stop-color="#FFA78F" stop-opacity="0.898"/>
<stop offset="1" stop-color="#FFA78F"/>
</linearGradient>
<linearGradient id="paint3_linear_5197_7443" x1="11.6341" y1="22.997" x2="11.6341" y2="25.1622" gradientUnits="userSpaceOnUse">
<stop stop-color="#FFA78F" stop-opacity="0"/>
<stop offset="0.898" stop-color="#FFA78F" stop-opacity="0.898"/>
<stop offset="1" stop-color="#FFA78F"/>
</linearGradient>
<linearGradient id="paint4_linear_5197_7443" x1="11.6341" y1="22.9028" x2="11.6341" y2="25.8679" gradientUnits="userSpaceOnUse">
<stop stop-color="#C4573A" stop-opacity="0"/>
<stop offset="0.241" stop-color="#BF5539" stop-opacity="0.241"/>
<stop offset="0.524" stop-color="#B15036" stop-opacity="0.524"/>
<stop offset="0.827" stop-color="#994631" stop-opacity="0.827"/>
<stop offset="1" stop-color="#883F2E"/>
</linearGradient>
<linearGradient id="paint5_linear_5197_7443" x1="17.3753" y1="15.4676" x2="21.2013" y2="15.4676" gradientUnits="userSpaceOnUse">
<stop stop-color="#C4573A" stop-opacity="0"/>
<stop offset="0.241" stop-color="#BF5539" stop-opacity="0.241"/>
<stop offset="0.524" stop-color="#B15036" stop-opacity="0.524"/>
<stop offset="0.827" stop-color="#994631" stop-opacity="0.827"/>
<stop offset="1" stop-color="#883F2E"/>
</linearGradient>
<linearGradient id="paint6_linear_5197_7443" x1="13.0305" y1="11.4958" x2="19.3075" y2="17.7728" gradientUnits="userSpaceOnUse">
<stop stop-color="#FFA78F" stop-opacity="0"/>
<stop offset="0.898" stop-color="#FFA78F" stop-opacity="0.898"/>
<stop offset="1" stop-color="#FFA78F"/>
</linearGradient>
<linearGradient id="paint7_linear_5197_7443" x1="4.84055" y1="12.8695" x2="11.1176" y2="19.1466" gradientUnits="userSpaceOnUse">
<stop stop-color="#FFA78F" stop-opacity="0"/>
<stop offset="0.898" stop-color="#FFA78F" stop-opacity="0.898"/>
<stop offset="1" stop-color="#FFA78F"/>
</linearGradient>
<linearGradient id="paint8_linear_5197_7443" x1="14.3778" y1="19.5519" x2="20.6549" y2="25.8289" gradientUnits="userSpaceOnUse">
<stop stop-color="#FFA78F" stop-opacity="0"/>
<stop offset="0.898" stop-color="#FFA78F" stop-opacity="0.898"/>
<stop offset="1" stop-color="#FFA78F"/>
</linearGradient>
<linearGradient id="paint9_linear_5197_7443" x1="11.6639" y1="11.3827" x2="16.3716" y2="16.0905" gradientUnits="userSpaceOnUse">
<stop stop-color="#FFA78F" stop-opacity="0"/>
<stop offset="0.898" stop-color="#FFA78F" stop-opacity="0.898"/>
<stop offset="1" stop-color="#FFA78F"/>
</linearGradient>
<linearGradient id="paint10_linear_5197_7443" x1="5.60741" y1="7.8701" x2="10.3152" y2="12.5779" gradientUnits="userSpaceOnUse">
<stop stop-color="#FFA78F" stop-opacity="0"/>
<stop offset="0.898" stop-color="#FFA78F" stop-opacity="0.898"/>
<stop offset="1" stop-color="#FFA78F"/>
</linearGradient>
<linearGradient id="paint11_linear_5197_7443" x1="11.9192" y1="6.78666" x2="16.6269" y2="11.4944" gradientUnits="userSpaceOnUse">
<stop stop-color="#FFA78F" stop-opacity="0"/>
<stop offset="0.898" stop-color="#FFA78F" stop-opacity="0.898"/>
<stop offset="1" stop-color="#FFA78F"/>
</linearGradient>
<linearGradient id="paint12_linear_5197_7443" x1="9.81719" y1="17.8611" x2="14.525" y2="22.5688" gradientUnits="userSpaceOnUse">
<stop stop-color="#FFA78F" stop-opacity="0"/>
<stop offset="0.898" stop-color="#FFA78F" stop-opacity="0.898"/>
<stop offset="1" stop-color="#FFA78F"/>
</linearGradient>
<linearGradient id="paint13_linear_5197_7443" x1="13.9291" y1="9.86428" x2="17.5384" y2="13.4735" gradientUnits="userSpaceOnUse">
<stop stop-color="#FFA78F" stop-opacity="0"/>
<stop offset="0.898" stop-color="#FFA78F" stop-opacity="0.898"/>
<stop offset="1" stop-color="#FFA78F"/>
</linearGradient>
<linearGradient id="paint14_linear_5197_7443" x1="8.91523" y1="10.9553" x2="12.5245" y2="14.5645" gradientUnits="userSpaceOnUse">
<stop stop-color="#FFA78F" stop-opacity="0"/>
<stop offset="0.898" stop-color="#FFA78F" stop-opacity="0.898"/>
<stop offset="1" stop-color="#FFA78F"/>
</linearGradient>
<linearGradient id="paint15_linear_5197_7443" x1="12.7741" y1="17.2612" x2="16.3833" y2="20.8704" gradientUnits="userSpaceOnUse">
<stop stop-color="#FFA78F" stop-opacity="0"/>
<stop offset="0.898" stop-color="#FFA78F" stop-opacity="0.898"/>
<stop offset="1" stop-color="#FFA78F"/>
</linearGradient>
<linearGradient id="paint16_linear_5197_7443" x1="5.33875" y1="19.4258" x2="8.94802" y2="23.0351" gradientUnits="userSpaceOnUse">
<stop stop-color="#FFA78F" stop-opacity="0"/>
<stop offset="0.898" stop-color="#FFA78F" stop-opacity="0.898"/>
<stop offset="1" stop-color="#FFA78F"/>
</linearGradient>
<linearGradient id="paint17_linear_5197_7443" x1="4.54017" y1="10.4487" x2="8.14944" y2="14.0581" gradientUnits="userSpaceOnUse">
<stop stop-color="#FFA78F" stop-opacity="0"/>
<stop offset="0.898" stop-color="#FFA78F" stop-opacity="0.898"/>
<stop offset="1" stop-color="#FFA78F"/>
</linearGradient>
<linearGradient id="paint18_linear_5197_7443" x1="14.2694" y1="27.4745" x2="14.2694" y2="22.6745" gradientUnits="userSpaceOnUse">
<stop stop-color="#C4573A" stop-opacity="0"/>
<stop offset="0.241" stop-color="#BF5539" stop-opacity="0.241"/>
<stop offset="0.524" stop-color="#B15036" stop-opacity="0.524"/>
<stop offset="0.827" stop-color="#994631" stop-opacity="0.827"/>
<stop offset="1" stop-color="#883F2E"/>
</linearGradient>
<linearGradient id="paint19_linear_5197_7443" x1="8.20515" y1="6.23624" x2="25.3239" y2="23.355" gradientUnits="userSpaceOnUse">
<stop stop-color="#F89580"/>
<stop offset="1" stop-color="#C4573A"/>
</linearGradient>
<linearGradient id="paint20_linear_5197_7443" x1="8.70589" y1="6.73581" x2="22.0216" y2="20.0515" gradientUnits="userSpaceOnUse">
<stop stop-color="#FFFAF8"/>
<stop offset="1" stop-color="#FFDFCF"/>
</linearGradient>
<linearGradient id="paint21_linear_5197_7443" x1="21.0247" y1="12.5323" x2="24.4211" y2="12.5323" gradientUnits="userSpaceOnUse">
<stop stop-color="#FFA78F" stop-opacity="0"/>
<stop offset="0.898" stop-color="#FFA78F" stop-opacity="0.898"/>
<stop offset="1" stop-color="#FFA78F"/>
</linearGradient>
<linearGradient id="paint22_linear_5197_7443" x1="16.3659" y1="20.0617" x2="16.3659" y2="22.2269" gradientUnits="userSpaceOnUse">
<stop stop-color="#FFA78F" stop-opacity="0"/>
<stop offset="0.898" stop-color="#FFA78F" stop-opacity="0.898"/>
<stop offset="1" stop-color="#FFA78F"/>
</linearGradient>
<linearGradient id="paint23_linear_5197_7443" x1="16.3659" y1="19.9676" x2="16.3659" y2="22.9327" gradientUnits="userSpaceOnUse">
<stop stop-color="#C4573A" stop-opacity="0"/>
<stop offset="0.241" stop-color="#BF5539" stop-opacity="0.241"/>
<stop offset="0.524" stop-color="#B15036" stop-opacity="0.524"/>
<stop offset="0.827" stop-color="#994631" stop-opacity="0.827"/>
<stop offset="1" stop-color="#883F2E"/>
</linearGradient>
<linearGradient id="paint24_linear_5197_7443" x1="22.1071" y1="12.5323" x2="25.933" y2="12.5323" gradientUnits="userSpaceOnUse">
<stop stop-color="#C4573A" stop-opacity="0"/>
<stop offset="0.241" stop-color="#BF5539" stop-opacity="0.241"/>
<stop offset="0.524" stop-color="#B15036" stop-opacity="0.524"/>
<stop offset="0.827" stop-color="#994631" stop-opacity="0.827"/>
<stop offset="1" stop-color="#883F2E"/>
</linearGradient>
<linearGradient id="paint25_linear_5197_7443" x1="17.7622" y1="8.56039" x2="24.0392" y2="14.8374" gradientUnits="userSpaceOnUse">
<stop stop-color="#FFA78F" stop-opacity="0"/>
<stop offset="0.898" stop-color="#FFA78F" stop-opacity="0.898"/>
<stop offset="1" stop-color="#FFA78F"/>
</linearGradient>
<linearGradient id="paint26_linear_5197_7443" x1="9.57229" y1="9.93417" x2="15.8493" y2="16.2112" gradientUnits="userSpaceOnUse">
<stop stop-color="#FFA78F" stop-opacity="0"/>
<stop offset="0.898" stop-color="#FFA78F" stop-opacity="0.898"/>
<stop offset="1" stop-color="#FFA78F"/>
</linearGradient>
<linearGradient id="paint27_linear_5197_7443" x1="19.1096" y1="16.6165" x2="25.3866" y2="22.8936" gradientUnits="userSpaceOnUse">
<stop stop-color="#FFA78F" stop-opacity="0"/>
<stop offset="0.898" stop-color="#FFA78F" stop-opacity="0.898"/>
<stop offset="1" stop-color="#FFA78F"/>
</linearGradient>
<linearGradient id="paint28_linear_5197_7443" x1="16.3956" y1="8.44725" x2="21.1033" y2="13.155" gradientUnits="userSpaceOnUse">
<stop stop-color="#FFA78F" stop-opacity="0"/>
<stop offset="0.898" stop-color="#FFA78F" stop-opacity="0.898"/>
<stop offset="1" stop-color="#FFA78F"/>
</linearGradient>
<linearGradient id="paint29_linear_5197_7443" x1="10.3391" y1="4.93468" x2="15.0469" y2="9.64244" gradientUnits="userSpaceOnUse">
<stop stop-color="#FFA78F" stop-opacity="0"/>
<stop offset="0.898" stop-color="#FFA78F" stop-opacity="0.898"/>
<stop offset="1" stop-color="#FFA78F"/>
</linearGradient>
<linearGradient id="paint30_linear_5197_7443" x1="16.6509" y1="3.85118" x2="21.3586" y2="8.55895" gradientUnits="userSpaceOnUse">
<stop stop-color="#FFA78F" stop-opacity="0"/>
<stop offset="0.898" stop-color="#FFA78F" stop-opacity="0.898"/>
<stop offset="1" stop-color="#FFA78F"/>
</linearGradient>
<linearGradient id="paint31_linear_5197_7443" x1="14.5489" y1="14.9257" x2="19.2567" y2="19.6334" gradientUnits="userSpaceOnUse">
<stop stop-color="#FFA78F" stop-opacity="0"/>
<stop offset="0.898" stop-color="#FFA78F" stop-opacity="0.898"/>
<stop offset="1" stop-color="#FFA78F"/>
</linearGradient>
<linearGradient id="paint32_linear_5197_7443" x1="18.6608" y1="6.9289" x2="22.27" y2="10.5382" gradientUnits="userSpaceOnUse">
<stop stop-color="#FFA78F" stop-opacity="0"/>
<stop offset="0.898" stop-color="#FFA78F" stop-opacity="0.898"/>
<stop offset="1" stop-color="#FFA78F"/>
</linearGradient>
<linearGradient id="paint33_linear_5197_7443" x1="13.6469" y1="8.01979" x2="17.2562" y2="11.6291" gradientUnits="userSpaceOnUse">
<stop stop-color="#FFA78F" stop-opacity="0"/>
<stop offset="0.898" stop-color="#FFA78F" stop-opacity="0.898"/>
<stop offset="1" stop-color="#FFA78F"/>
</linearGradient>
<linearGradient id="paint34_linear_5197_7443" x1="17.5058" y1="14.3257" x2="21.115" y2="17.935" gradientUnits="userSpaceOnUse">
<stop stop-color="#FFA78F" stop-opacity="0"/>
<stop offset="0.898" stop-color="#FFA78F" stop-opacity="0.898"/>
<stop offset="1" stop-color="#FFA78F"/>
</linearGradient>
<linearGradient id="paint35_linear_5197_7443" x1="10.0705" y1="16.4904" x2="13.6797" y2="20.0996" gradientUnits="userSpaceOnUse">
<stop stop-color="#FFA78F" stop-opacity="0"/>
<stop offset="0.898" stop-color="#FFA78F" stop-opacity="0.898"/>
<stop offset="1" stop-color="#FFA78F"/>
</linearGradient>
<linearGradient id="paint36_linear_5197_7443" x1="9.27187" y1="7.51337" x2="12.8812" y2="11.1226" gradientUnits="userSpaceOnUse">
<stop stop-color="#FFA78F" stop-opacity="0"/>
<stop offset="0.898" stop-color="#FFA78F" stop-opacity="0.898"/>
<stop offset="1" stop-color="#FFA78F"/>
</linearGradient>
<clipPath id="clip0_5197_7443">
<rect width="24" height="24" fill="white" transform="translate(2 2)"/>
</clipPath>
</defs>
</svg>
