<svg width="40" height="40" viewBox="0 0 40 40" fill="none" xmlns="http://www.w3.org/2000/svg">
<rect width="40" height="40" rx="20" fill="#FFEEE5"/>
<path fill-rule="evenodd" clip-rule="evenodd" d="M20.0004 10.4004C14.6985 10.4004 10.4004 14.6985 10.4004 20.0004C10.4004 25.3023 14.6985 29.6004 20.0004 29.6004C25.3023 29.6004 29.6004 25.3023 29.6004 20.0004C29.6004 14.6985 25.3023 10.4004 20.0004 10.4004ZM20.0004 14.0004C18.964 14.0004 18.1679 14.9183 18.3144 15.9443L18.8797 19.9012C18.9594 20.4589 19.437 20.8731 20.0004 20.8731C20.5637 20.8731 21.0414 20.4589 21.121 19.9012L21.6863 15.9443C21.8329 14.9183 21.0368 14.0004 20.0004 14.0004ZM20.0004 24.8004C20.8137 24.8004 21.4731 24.141 21.4731 23.3277C21.4731 22.5143 20.8137 21.8549 20.0004 21.8549C19.187 21.8549 18.5277 22.5143 18.5277 23.3277C18.5277 24.141 19.187 24.8004 20.0004 24.8004Z" fill="#F0681B"/>
</svg>
