<svg width="40" height="40" viewBox="0 0 40 40" fill="none" xmlns="http://www.w3.org/2000/svg">
<rect width="40" height="40" rx="20" fill="#E8F8E8"/>
<path fill-rule="evenodd" clip-rule="evenodd" d="M16.1615 17H23.8385C24.3657 17 24.8205 17 25.195 17.0306C25.5904 17.0629 25.9836 17.1342 26.362 17.327C26.9265 17.6146 27.3854 18.0735 27.673 18.638C27.8658 19.0164 27.9371 19.4096 27.9694 19.805C28 20.1795 28 20.6344 28 21.1615V25.8386C28 26.3657 28 26.8205 27.9694 27.195C27.9371 27.5904 27.8658 27.9836 27.673 28.362C27.3854 28.9265 26.9265 29.3854 26.362 29.673C25.9836 29.8658 25.5904 29.9371 25.195 29.9694C24.8205 30 24.3657 30 23.8385 30H16.1615C15.6343 30 15.1795 30 14.805 29.9694C14.4096 29.9371 14.0164 29.8658 13.638 29.673C13.0735 29.3854 12.6146 28.9265 12.327 28.362C12.1342 27.9836 12.0629 27.5904 12.0306 27.195C12 26.8205 12 26.3657 12 25.8386V21.1614C12 20.6343 12 20.1795 12.0306 19.805C12.0629 19.4096 12.1342 19.0164 12.327 18.638C12.6146 18.0735 13.0735 17.6146 13.638 17.327C14.0164 17.1342 14.4096 17.0629 14.805 17.0306C15.1795 17 15.6343 17 16.1615 17ZM20 23C19.4477 23 19 23.4477 19 24V25C19 25.5523 19.4477 26 20 26C20.5523 26 21 25.5523 21 25V24C21 23.4477 20.5523 23 20 23Z" fill="#3DA43B"/>
<path fill-rule="evenodd" clip-rule="evenodd" d="M16 14C16 11.7909 17.7909 10 20 10C22.2091 10 24 11.7909 24 14V17H22V14C22 12.8954 21.1046 12 20 12C18.8954 12 18 12.8954 18 14V17H16V14Z" fill="#3DA43B"/>
</svg>
