<svg width="40" height="40" viewBox="0 0 40 40" fill="none" xmlns="http://www.w3.org/2000/svg">
<rect width="40" height="40" rx="20" fill="#E8F8E8"/>
<path fill-rule="evenodd" clip-rule="evenodd" d="M10 20C10 14.4772 14.4772 10 20 10C25.5228 10 30 14.4772 30 20C30 25.5228 25.5228 30 20 30C14.4772 30 10 25.5228 10 20ZM23.7071 18.7071C24.0976 18.3166 24.0976 17.6834 23.7071 17.2929C23.3166 16.9024 22.6834 16.9024 22.2929 17.2929L19 20.5858L17.7071 19.2929C17.3166 18.9024 16.6834 18.9024 16.2929 19.2929C15.9024 19.6834 15.9024 20.3166 16.2929 20.7071L18.2929 22.7071C18.6834 23.0976 19.3166 23.0976 19.7071 22.7071L23.7071 18.7071Z" fill="#3DA43B"/>
</svg>
