<svg width="22" height="50" viewBox="0 0 22 50" fill="none" xmlns="http://www.w3.org/2000/svg">
<path d="M1.28787 34.0272L1.29351 34.0323C1.16439 35.6759 4.98094 42.7591 10.6666 40.4845C11.2166 41.319 11.8115 42.123 12.4458 42.8914C12.1427 42.7693 11.8397 42.6523 11.5309 42.5607C8.79196 41.7261 6.50204 42.8201 6.04184 43.1611C5.87348 43.2832 5.76116 43.4817 5.75564 43.675V43.6954C5.75564 43.7106 5.76128 43.7309 5.76128 43.7463H5.76692C5.96336 44.5248 8.92684 47.7764 11.896 48.2546C12.2215 48.3056 12.5469 48.331 12.867 48.331C14.2084 48.331 15.4768 47.868 16.5489 46.9825C17.9239 48.0969 19.3889 49.0892 20.9436 49.9135C21.0558 49.9694 21.1737 50 21.2972 50C21.5385 50 21.7743 49.8829 21.9033 49.6845C22.0998 49.3792 21.9876 48.9874 21.6507 48.8144C20.1466 48.0205 18.7321 47.0588 17.4132 45.975C17.9296 45.0897 18.6199 43.4359 18.5245 41.66C18.4572 40.6576 18.1429 39.0241 16.9755 36.9175L16.9418 36.8565C16.8351 36.6223 16.5825 36.4545 16.2906 36.4545C16.1111 36.4545 15.9539 36.5104 15.8305 36.6071C15.0503 37.1414 13.3272 38.5916 13.2711 41.0086C13.2655 41.2884 13.2936 41.5633 13.3328 41.8381C12.8052 41.1766 12.3001 40.4896 11.8343 39.7772C14.5171 37.3907 14.8931 34.2817 14.214 30.913L14.1972 30.8367C14.1691 30.6332 14.0401 30.45 13.8379 30.3483C13.6414 30.2516 13.4114 30.2414 13.2093 30.3228C11.3011 30.969 9.95966 32.2157 9.39278 33.839C9.29738 34.1138 9.23571 34.3936 9.19071 34.6735C8.87079 33.8543 8.6014 33.0249 8.37124 32.1802C9.31983 31.7477 10.9025 30.7809 11.8848 29.1983C12.4292 28.3231 13.1252 26.7813 13.3946 24.3847L13.4059 24.288H13.4002C13.417 24.2269 13.417 24.1862 13.417 24.1811C13.417 23.9318 13.2543 23.7028 13.0017 23.6011C12.8783 23.5501 12.7436 23.5349 12.6145 23.5502C10.594 23.6418 8.92706 24.4457 7.87744 25.8247C7.70908 26.0486 7.56881 26.2877 7.43969 26.5269C7.39481 25.6568 7.38917 24.7765 7.42841 23.9013C8.45548 23.7741 10.2347 23.3416 11.6828 22.0847C12.8166 21.0924 13.7931 19.6931 14.5901 17.9122L14.6294 17.8308C14.7417 17.6375 14.7361 17.3932 14.6013 17.1947C14.4891 17.037 14.3095 16.9352 14.113 16.9047C12.1487 16.4416 10.3189 16.7317 8.91015 17.7239C8.67999 17.8816 8.47239 18.0698 8.27595 18.2633C8.49483 17.4084 8.75307 16.5688 9.05054 15.7394C9.44906 15.8157 9.96541 15.8768 10.5604 15.8768C11.4809 15.8768 12.5753 15.7293 13.6473 15.2458C15.0337 14.6199 16.3919 13.5565 17.694 12.0808L17.7502 12.0147C17.9129 11.862 17.9859 11.6482 17.9355 11.4295C17.8906 11.2361 17.7447 11.0784 17.5537 10.9919C15.8195 10.0251 13.9953 9.79104 12.3789 10.31C12.0758 10.4067 11.7896 10.5441 11.5146 10.6916C12.0366 9.85709 12.609 9.05311 13.2265 8.28993C14.4613 7.86248 16.538 7.0127 18.2665 5.56761C19.1758 4.7942 20.5284 3.38469 21.8474 1.06937L21.8923 0.992997C22.0382 0.779327 22.0326 0.494294 21.8586 0.280623C21.6678 0.0516161 21.4095 0.0312715 21.2861 0.0211514C20.9381 -0.0144256 17.7951 -0.217976 15.1402 1.95472C12.8727 3.82215 12.2048 6.45297 12.1038 7.52153C11.4977 8.27459 10.9363 9.05321 10.4143 9.86731C10.4311 9.58238 10.448 9.29745 10.4424 9.01753C10.4424 9.01242 10.4424 9.01242 10.4424 9.01242C10.4087 6.6514 9.29186 4.73306 8.62395 3.99523C8.4892 3.74588 8.18056 3.59836 7.86064 3.65428C7.03554 3.79669 4.712 8.00489 5.07116 10.9919C5.34055 13.3784 6.81113 14.6607 7.7596 15.2509C7.42841 16.1465 7.14785 17.0624 6.90653 17.9886C6.83358 17.6985 6.74934 17.4034 6.65394 17.1184C5.84575 14.7879 4.06653 13.353 3.2359 12.9153C3.01703 12.7525 2.70827 12.722 2.45015 12.8492C1.70928 13.2156 0.844937 17.9733 2.11896 20.6346C2.88791 22.2629 4.29669 23.3926 6.03102 23.8149C5.98614 24.7868 5.99178 25.7638 6.04782 26.7306C5.8851 26.4812 5.72791 26.2269 5.54827 25.9876C3.70737 23.5757 1.08061 23.0821 0.693378 23.0821C0.687739 23.0821 0.687737 23.0821 0.682098 23.0821C0.637218 23.0821 0.592339 23.0872 0.547459 23.0974C0.407179 23.1279 0.272421 23.1941 0.171383 23.3009C0.160106 23.306 0.154582 23.3161 0.148943 23.3264C0.132142 23.3467 0.1097 23.3722 0.0927841 23.3976L0.104063 23.4027C-0.266371 24.2627 0.322942 28.654 2.34347 30.7352C3.48286 31.9157 4.95896 32.5365 6.56982 32.5365C6.71574 32.5365 6.86729 32.5314 7.01885 32.5213C7.27697 33.4576 7.58572 34.3887 7.95052 35.2945C7.72036 35.1062 7.48468 34.923 7.24337 34.7551C4.79624 33.0607 2.15832 33.422 1.743 33.5593C1.70376 33.5745 1.67004 33.5898 1.63632 33.6051C1.49041 33.6813 1.37256 33.7984 1.31077 33.951C1.30513 33.9561 1.30513 33.9663 1.30513 33.9765C1.29351 33.9916 1.28787 34.012 1.28787 34.0272Z" fill="#10A74D"/>
</svg>
