<svg width="61" height="24" viewBox="0 0 61 24" fill="none" xmlns="http://www.w3.org/2000/svg">
<g filter="url(#filter0_i_6382_20612)">
<rect width="60.998" height="24" rx="6" fill="#2E3037"/>
<rect width="60.998" height="24" rx="6" fill="#0A141B"/>
<rect width="60.998" height="24" rx="6" fill="url(#paint0_radial_6382_20612)"/>
<rect width="60.998" height="24" rx="6" fill="url(#paint1_radial_6382_20612)"/>
<g filter="url(#filter1_i_6382_20612)">
<path d="M20.4998 10.6735L19.2698 16.1085C19.2454 16.2222 19.1821 16.3238 19.0908 16.3959C18.9996 16.468 18.886 16.5061 18.7698 16.5035H9.18976C9.07349 16.5061 8.95995 16.468 8.86869 16.3959C8.77743 16.3238 8.71416 16.2222 8.68976 16.1085L7.49976 10.6735C7.47974 10.5816 7.486 10.486 7.51784 10.3976C7.54968 10.3091 7.6058 10.2315 7.67976 10.1735C7.75393 10.1153 7.84305 10.0792 7.93683 10.0695C8.0306 10.0598 8.12522 10.0767 8.20976 10.1185L11.1298 11.5335L13.5498 7.25347C13.5934 7.17653 13.6566 7.11252 13.733 7.06799C13.8095 7.02346 13.8963 7 13.9848 7C14.0732 7 14.1601 7.02346 14.2365 7.06799C14.3129 7.11252 14.3762 7.17653 14.4198 7.25347L16.8398 11.5385L19.7798 10.1135C19.8649 10.0683 19.9613 10.0488 20.0573 10.0571C20.1533 10.0655 20.2448 10.1014 20.3209 10.1606C20.397 10.2197 20.4543 10.2996 20.4861 10.3906C20.5178 10.4816 20.5226 10.5798 20.4998 10.6735Z" fill="#D5FADF"/>
</g>
<g filter="url(#filter2_i_6382_20612)">
<path d="M46.5967 8.20264C47.4762 7.26839 48.6589 6.80127 50.1445 6.80127C51.6302 6.80127 52.8105 7.26839 53.6855 8.20264C54.5605 9.13232 54.998 10.397 54.998 11.9966C54.998 13.6007 54.5605 14.87 53.6855 15.8042C52.8105 16.7339 51.6302 17.1987 50.1445 17.1987C48.6497 17.1987 47.4648 16.7339 46.5898 15.8042C45.7148 14.87 45.2773 13.6007 45.2773 11.9966C45.2773 10.397 45.7171 9.13232 46.5967 8.20264ZM50.1445 8.87939C49.4473 8.87939 48.8867 9.16195 48.4629 9.72705C48.0436 10.2922 47.834 11.0487 47.834 11.9966C47.834 12.9491 48.0436 13.7078 48.4629 14.2729C48.8822 14.8381 49.4427 15.1206 50.1445 15.1206C50.8418 15.1206 51.4001 14.8381 51.8193 14.2729C52.2386 13.7078 52.4482 12.9491 52.4482 11.9966C52.4482 11.0487 52.2363 10.2922 51.8125 9.72705C51.3932 9.16195 50.8372 8.87939 50.1445 8.87939Z" fill="#D5FADF"/>
</g>
<g filter="url(#filter3_i_6382_20612)">
<path d="M38.5295 8.96143C38.3638 8.96143 38.2295 9.09574 38.2295 9.26143V11.4095C38.2295 11.5752 38.3638 11.7095 38.5295 11.7095H39.7129C40.1732 11.7095 40.5332 11.5887 40.793 11.3472C41.0527 11.1056 41.1826 10.7707 41.1826 10.3423C41.1826 9.92301 41.0482 9.58805 40.7793 9.3374C40.5104 9.08675 40.1527 8.96143 39.7061 8.96143H38.5295ZM38.5295 13.48C38.3638 13.48 38.2295 13.6143 38.2295 13.78V16.6321C38.2295 16.7978 38.0952 16.9321 37.9295 16.9321H36.0207C35.855 16.9321 35.7207 16.7978 35.7207 16.6321V7.36787C35.7207 7.20219 35.855 7.06787 36.0207 7.06787H40.0615C41.2145 7.06787 42.1169 7.35726 42.7686 7.93604C43.4202 8.51025 43.7461 9.3055 43.7461 10.3218C43.7461 10.9416 43.598 11.5044 43.3018 12.0103C43.0609 12.4178 42.7432 12.7366 42.3487 12.9664C42.1993 13.0535 42.1314 13.2407 42.2106 13.3945L43.8079 16.4947C43.9107 16.6944 43.7658 16.9321 43.5412 16.9321H41.404C41.2894 16.9321 41.1849 16.8669 41.1345 16.7639L39.6106 13.6482C39.5602 13.5452 39.4557 13.48 39.3411 13.48H38.5295Z" fill="#D5FADF"/>
</g>
<g filter="url(#filter4_i_6382_20612)">
<path d="M26 7.36787C26 7.20219 26.1343 7.06787 26.3 7.06787H30.3203C31.3822 7.06787 32.2389 7.38688 32.8906 8.0249C33.5469 8.66292 33.875 9.51058 33.875 10.5679C33.875 11.6115 33.5332 12.4523 32.8496 13.0903C32.166 13.7238 31.2728 14.0405 30.1699 14.0405H28.8088C28.6431 14.0405 28.5088 14.1748 28.5088 14.3405V16.6321C28.5088 16.7978 28.3745 16.9321 28.2088 16.9321H26.3C26.1343 16.9321 26 16.7978 26 16.6321V7.36787ZM28.8088 8.99561C28.6431 8.99561 28.5088 9.12992 28.5088 9.29561V11.847C28.5088 12.0127 28.6431 12.147 28.8088 12.147H29.6436C30.1813 12.147 30.5983 12.0125 30.8945 11.7437C31.1908 11.4748 31.3389 11.0851 31.3389 10.5747C31.3389 10.0597 31.193 9.66781 30.9014 9.39893C30.6097 9.13005 30.195 8.99561 29.6572 8.99561H28.8088Z" fill="#D5FADF"/>
</g>
</g>
<defs>
<filter id="filter0_i_6382_20612" x="0" y="0" width="60.998" height="25" filterUnits="userSpaceOnUse" color-interpolation-filters="sRGB">
<feFlood flood-opacity="0" result="BackgroundImageFix"/>
<feBlend mode="normal" in="SourceGraphic" in2="BackgroundImageFix" result="shape"/>
<feColorMatrix in="SourceAlpha" type="matrix" values="0 0 0 0 0 0 0 0 0 0 0 0 0 0 0 0 0 0 127 0" result="hardAlpha"/>
<feOffset dy="1"/>
<feGaussianBlur stdDeviation="0.5"/>
<feComposite in2="hardAlpha" operator="arithmetic" k2="-1" k3="1"/>
<feColorMatrix type="matrix" values="0 0 0 0 1 0 0 0 0 1 0 0 0 0 1 0 0 0 0.1 0"/>
<feBlend mode="normal" in2="shape" result="effect1_innerShadow_6382_20612"/>
</filter>
<filter id="filter1_i_6382_20612" x="7.48828" y="7" width="13.0254" height="10.5035" filterUnits="userSpaceOnUse" color-interpolation-filters="sRGB">
<feFlood flood-opacity="0" result="BackgroundImageFix"/>
<feBlend mode="normal" in="SourceGraphic" in2="BackgroundImageFix" result="shape"/>
<feColorMatrix in="SourceAlpha" type="matrix" values="0 0 0 0 0 0 0 0 0 0 0 0 0 0 0 0 0 0 127 0" result="hardAlpha"/>
<feOffset dy="1"/>
<feGaussianBlur stdDeviation="0.5"/>
<feComposite in2="hardAlpha" operator="arithmetic" k2="-1" k3="1"/>
<feColorMatrix type="matrix" values="0 0 0 0 1 0 0 0 0 1 0 0 0 0 1 0 0 0 1 0"/>
<feBlend mode="normal" in2="shape" result="effect1_innerShadow_6382_20612"/>
</filter>
<filter id="filter2_i_6382_20612" x="45.2773" y="6.80127" width="9.7207" height="11.3975" filterUnits="userSpaceOnUse" color-interpolation-filters="sRGB">
<feFlood flood-opacity="0" result="BackgroundImageFix"/>
<feBlend mode="normal" in="SourceGraphic" in2="BackgroundImageFix" result="shape"/>
<feColorMatrix in="SourceAlpha" type="matrix" values="0 0 0 0 0 0 0 0 0 0 0 0 0 0 0 0 0 0 127 0" result="hardAlpha"/>
<feOffset dy="1"/>
<feGaussianBlur stdDeviation="0.5"/>
<feComposite in2="hardAlpha" operator="arithmetic" k2="-1" k3="1"/>
<feColorMatrix type="matrix" values="0 0 0 0 1 0 0 0 0 1 0 0 0 0 1 0 0 0 1 0"/>
<feBlend mode="normal" in2="shape" result="effect1_innerShadow_6382_20612"/>
</filter>
<filter id="filter3_i_6382_20612" x="35.7207" y="7.06787" width="8.12109" height="10.8643" filterUnits="userSpaceOnUse" color-interpolation-filters="sRGB">
<feFlood flood-opacity="0" result="BackgroundImageFix"/>
<feBlend mode="normal" in="SourceGraphic" in2="BackgroundImageFix" result="shape"/>
<feColorMatrix in="SourceAlpha" type="matrix" values="0 0 0 0 0 0 0 0 0 0 0 0 0 0 0 0 0 0 127 0" result="hardAlpha"/>
<feOffset dy="1"/>
<feGaussianBlur stdDeviation="0.5"/>
<feComposite in2="hardAlpha" operator="arithmetic" k2="-1" k3="1"/>
<feColorMatrix type="matrix" values="0 0 0 0 1 0 0 0 0 1 0 0 0 0 1 0 0 0 1 0"/>
<feBlend mode="normal" in2="shape" result="effect1_innerShadow_6382_20612"/>
</filter>
<filter id="filter4_i_6382_20612" x="26" y="7.06787" width="7.875" height="10.8643" filterUnits="userSpaceOnUse" color-interpolation-filters="sRGB">
<feFlood flood-opacity="0" result="BackgroundImageFix"/>
<feBlend mode="normal" in="SourceGraphic" in2="BackgroundImageFix" result="shape"/>
<feColorMatrix in="SourceAlpha" type="matrix" values="0 0 0 0 0 0 0 0 0 0 0 0 0 0 0 0 0 0 127 0" result="hardAlpha"/>
<feOffset dy="1"/>
<feGaussianBlur stdDeviation="0.5"/>
<feComposite in2="hardAlpha" operator="arithmetic" k2="-1" k3="1"/>
<feColorMatrix type="matrix" values="0 0 0 0 1 0 0 0 0 1 0 0 0 0 1 0 0 0 1 0"/>
<feBlend mode="normal" in2="shape" result="effect1_innerShadow_6382_20612"/>
</filter>
<radialGradient id="paint0_radial_6382_20612" cx="0" cy="0" r="1" gradientUnits="userSpaceOnUse" gradientTransform="translate(30.499) rotate(90) scale(24 60.998)">
<stop stop-color="#3C6B2C"/>
<stop offset="1" stop-color="#213B20"/>
</radialGradient>
<radialGradient id="paint1_radial_6382_20612" cx="0" cy="0" r="1" gradientUnits="userSpaceOnUse" gradientTransform="translate(30.499) rotate(90) scale(24 60.998)">
<stop stop-color="#75D71A"/>
<stop offset="1" stop-color="#30581F"/>
</radialGradient>
</defs>
</svg>
